<?xml version="1.0" encoding="UTF-8" standalone="no"?>
<!-- Created with Inkscape (http://www.inkscape.org/) -->

<svg
   width="5.27in"
   height="2.1232505in"
   viewBox="0 0 21.08 8.4930019"
   version="1.1"
   id="svg658"
   xml:space="preserve"
   inkscape:version="1.2.2 (b0a8486541, 2022-12-01)"
   sodipodi:docname="repeatability-table.svg"
   inkscape:export-filename="repeatability-table.png"
   inkscape:export-xdpi="300"
   inkscape:export-ydpi="300"
   xmlns:inkscape="http://www.inkscape.org/namespaces/inkscape"
   xmlns:sodipodi="http://sodipodi.sourceforge.net/DTD/sodipodi-0.dtd"
   xmlns="http://www.w3.org/2000/svg"
   xmlns:svg="http://www.w3.org/2000/svg"><sodipodi:namedview
     id="namedview660"
     pagecolor="#ffffff"
     bordercolor="#000000"
     borderopacity="0.25"
     inkscape:showpageshadow="2"
     inkscape:pageopacity="0.0"
     inkscape:pagecheckerboard="0"
     inkscape:deskcolor="#d1d1d1"
     inkscape:document-units="in"
     showgrid="true"
     inkscape:zoom="1.2938725"
     inkscape:cx="178.92026"
     inkscape:cy="74.968748"
     inkscape:window-width="3790"
     inkscape:window-height="2111"
     inkscape:window-x="50"
     inkscape:window-y="0"
     inkscape:window-maximized="1"
     inkscape:current-layer="layer1"><inkscape:grid
       type="xygrid"
       id="grid779"
       units="in"
       spacingx="0.2"
       originx="0.04"
       originy="0.039999999"
       spacingy="0.2" /></sodipodi:namedview><defs
     id="defs655" /><g
     inkscape:label="Layer 1"
     inkscape:groupmode="layer"
     id="layer1"
     transform="translate(0.04,0.04)"><text
       xml:space="preserve"
       style="font-style:italic;font-size:1.22222px;font-family:'Atkinson Hyperlegible';-inkscape-font-specification:'Atkinson Hyperlegible Italic';fill:#000000;fill-rule:evenodd;stroke-width:0.08;stroke-linecap:round;stroke-linejoin:bevel;stroke-dasharray:0.24, 0.24;paint-order:markers stroke fill"
       x="11.310019"
       y="0.97233164"
       id="text356"><tspan
         sodipodi:role="line"
         style="font-style:normal;stroke-width:0.08"
         x="11.310019"
         y="0.97233164"
         id="tspan358">Eval 2</tspan></text><g
       id="g3784"><text
         xml:space="preserve"
         style="font-style:italic;font-size:1.22222px;font-family:'Atkinson Hyperlegible';-inkscape-font-specification:'Atkinson Hyperlegible Italic';fill:#000000;fill-rule:evenodd;stroke-width:0.08;stroke-linecap:round;stroke-linejoin:bevel;stroke-dasharray:0.24, 0.24;paint-order:markers stroke fill"
         x="0.11001894"
         y="2.1723316"
         id="text234"><tspan
           sodipodi:role="line"
           style="font-style:normal;stroke-width:0.08"
           x="0.11001894"
           y="2.1723316"
           id="tspan244">Eval 1</tspan></text><text
         xml:space="preserve"
         style="font-style:italic;font-size:1.22222px;font-family:'Atkinson Hyperlegible';-inkscape-font-specification:'Atkinson Hyperlegible Italic';fill:#000000;fill-rule:evenodd;stroke-width:0.08;stroke-linecap:round;stroke-linejoin:bevel;stroke-dasharray:0.24, 0.24;paint-order:markers stroke fill"
         x="0.13546613"
         y="3.3869984"
         id="text450"><tspan
           sodipodi:role="line"
           id="tspan448"
           style="font-style:normal;stroke-width:0.08"
           x="0.13546613"
           y="3.3869984">ID</tspan></text><text
         xml:space="preserve"
         style="font-style:italic;font-size:1.22222px;font-family:'Atkinson Hyperlegible';-inkscape-font-specification:'Atkinson Hyperlegible Italic';fill:#000000;fill-rule:evenodd;stroke-width:0.08;stroke-linecap:round;stroke-linejoin:bevel;stroke-dasharray:0.24, 0.24;paint-order:markers stroke fill"
         x="0.12224111"
         y="4.6046634"
         id="text454"><tspan
           sodipodi:role="line"
           id="tspan452"
           style="font-style:normal;stroke-width:0.08"
           x="0.12224111"
           y="4.6046634">Inc-A</tspan></text><text
         xml:space="preserve"
         style="font-style:italic;font-size:1.22222px;font-family:'Atkinson Hyperlegible';-inkscape-font-specification:'Atkinson Hyperlegible Italic';fill:#000000;fill-rule:evenodd;stroke-width:0.08;stroke-linecap:round;stroke-linejoin:bevel;stroke-dasharray:0.24, 0.24;paint-order:markers stroke fill"
         x="0.12224111"
         y="5.803441"
         id="text458"><tspan
           sodipodi:role="line"
           id="tspan456"
           style="font-style:normal;stroke-width:0.08"
           x="0.12224111"
           y="5.803441">Inc-B</tspan></text><text
         xml:space="preserve"
         style="font-style:italic;font-size:1.22222px;font-family:'Atkinson Hyperlegible';-inkscape-font-specification:'Atkinson Hyperlegible Italic';fill:#000000;fill-rule:evenodd;stroke-width:0.08;stroke-linecap:round;stroke-linejoin:bevel;stroke-dasharray:0.24, 0.24;paint-order:markers stroke fill"
         x="0.12224111"
         y="7.0181074"
         id="text462"><tspan
           sodipodi:role="line"
           id="tspan460"
           style="font-style:normal;stroke-width:0.08"
           x="0.12224111"
           y="7.0181074">Inc-C</tspan></text><text
         xml:space="preserve"
         style="font-style:italic;font-size:1.22222px;font-family:'Atkinson Hyperlegible';-inkscape-font-specification:'Atkinson Hyperlegible Italic';fill:#000000;fill-rule:evenodd;stroke-width:0.08;stroke-linecap:round;stroke-linejoin:bevel;stroke-dasharray:0.24, 0.24;paint-order:markers stroke fill"
         x="0.11001894"
         y="8.1869984"
         id="text466"><tspan
           sodipodi:role="line"
           id="tspan464"
           style="font-style:normal;stroke-width:0.08"
           x="0.11001894"
           y="8.1869984">EL</tspan></text></g><g
       id="g3821"><path
         style="fill:#000000;fill-rule:evenodd;stroke:#000000;stroke-width:0.08;stroke-linecap:round;stroke-linejoin:bevel;stroke-dasharray:none;paint-order:markers stroke fill"
         d="m 0.00290765,1.1869983 4e-7,7.16"
         id="path1283"
         sodipodi:nodetypes="cc" /><g
         id="g3802"><path
           style="fill:#000000;fill-rule:evenodd;stroke:#000000;stroke-width:0.08;stroke-linecap:round;stroke-linejoin:bevel;stroke-dasharray:none;paint-order:markers stroke fill"
           d="M 0.00290768,2.3907131 21,2.4037146"
           id="path557"
           sodipodi:nodetypes="cc" /><path
           style="fill:#000000;fill-rule:evenodd;stroke:#000000;stroke-width:0.08;stroke-linecap:round;stroke-linejoin:bevel;stroke-dasharray:none;paint-order:markers stroke fill"
           d="M 0,8.4 20.997092,8.413002"
           id="path557-3"
           sodipodi:nodetypes="cc" /><path
           style="fill:#000000;fill-rule:evenodd;stroke:#000000;stroke-width:0.08;stroke-linecap:round;stroke-linejoin:bevel;stroke-dasharray:none;paint-order:markers stroke fill"
           d="M 0.00290773,1.1888557 21,1.2018573"
           id="path557-6"
           sodipodi:nodetypes="cc" /><path
           style="fill:#000000;fill-rule:evenodd;stroke:#000000;stroke-width:0.08;stroke-linecap:round;stroke-linejoin:bevel;stroke-dasharray:none;paint-order:markers stroke fill"
           d="M 4,0 H 21"
           id="path1281"
           sodipodi:nodetypes="cc" /><path
           style="fill:#000000;fill-rule:evenodd;stroke:#000000;stroke-width:0.08;stroke-linecap:round;stroke-linejoin:bevel;stroke-dasharray:none;paint-order:markers stroke fill"
           d="M 0.00290765,3.5925703 21,3.605572"
           id="path1285"
           sodipodi:nodetypes="cc" /><path
           style="fill:#000000;fill-rule:evenodd;stroke:#000000;stroke-width:0.08;stroke-linecap:round;stroke-linejoin:bevel;stroke-dasharray:none;paint-order:markers stroke fill"
           d="M 0.00290765,4.7944277 21,4.8074294"
           id="path1287"
           sodipodi:nodetypes="cc" /><path
           style="fill:#000000;fill-rule:evenodd;stroke:#000000;stroke-width:0.08;stroke-linecap:round;stroke-linejoin:bevel;stroke-dasharray:none;paint-order:markers stroke fill"
           d="M 0.00290765,5.9962851 21,6.0092868"
           id="path1289"
           sodipodi:nodetypes="cc" /><path
           style="fill:#000000;fill-rule:evenodd;stroke:#000000;stroke-width:0.08;stroke-linecap:round;stroke-linejoin:bevel;stroke-dasharray:none;paint-order:markers stroke fill"
           d="M 0.00290765,7.1981426 21,7.2111443"
           id="path1291"
           sodipodi:nodetypes="cc" /></g><g
         id="g3792"><path
           style="fill:#000000;fill-rule:evenodd;stroke:#000000;stroke-width:0.08;stroke-linecap:round;stroke-linejoin:bevel;stroke-dasharray:none;paint-order:markers stroke fill"
           d="M 3.9999998,9.0000001e-8 4,8.4"
           id="path1209"
           sodipodi:nodetypes="cc" /><path
           style="fill:#000000;fill-rule:evenodd;stroke:#000000;stroke-width:0.08;stroke-linecap:round;stroke-linejoin:bevel;stroke-dasharray:none;paint-order:markers stroke fill"
           d="M 21,9.5e-8 V 8.3999999"
           id="path1279"
           sodipodi:nodetypes="cc" /><path
           style="fill:#000000;fill-rule:evenodd;stroke:#000000;stroke-width:0.08;stroke-linecap:round;stroke-linejoin:bevel;stroke-dasharray:none;paint-order:markers stroke fill"
           d="M 7.4,1.2 V 8.4"
           id="path1293"
           sodipodi:nodetypes="cc" /><path
           style="fill:#000000;fill-rule:evenodd;stroke:#000000;stroke-width:0.08;stroke-linecap:round;stroke-linejoin:bevel;stroke-dasharray:none;paint-order:markers stroke fill"
           d="M 10.8,1.2 V 8.36"
           id="path1295"
           sodipodi:nodetypes="cc" /><path
           style="fill:#000000;fill-rule:evenodd;stroke:#000000;stroke-width:0.08;stroke-linecap:round;stroke-linejoin:bevel;stroke-dasharray:none;paint-order:markers stroke fill"
           d="M 14.2,1.2 V 8.36"
           id="path1297"
           sodipodi:nodetypes="cc" /><path
           style="fill:#000000;fill-rule:evenodd;stroke:#000000;stroke-width:0.08;stroke-linecap:round;stroke-linejoin:bevel;stroke-dasharray:none;paint-order:markers stroke fill"
           d="M 17.6,1.2 V 8.36"
           id="path1299"
           sodipodi:nodetypes="cc" /></g></g><g
       id="g3730"><text
         xml:space="preserve"
         style="font-style:italic;font-size:1.22222px;font-family:'Atkinson Hyperlegible';-inkscape-font-specification:'Atkinson Hyperlegible Italic';fill:#000000;fill-rule:evenodd;stroke-width:0.08;stroke-linecap:round;stroke-linejoin:bevel;stroke-dasharray:0.24, 0.24;paint-order:markers stroke fill"
         x="4.1193333"
         y="2.2164428"
         id="text412"><tspan
           sodipodi:role="line"
           id="tspan410"
           style="font-style:normal;stroke-width:0.08"
           x="4.1193333"
           y="2.2164428">ID </tspan></text><g
         id="g3692"
         transform="translate(-0.05685371)"><path
           style="fill:#1c71d8;stroke:none;stroke-width:0.999998"
           d="m 4.674376,3.4128497 c -0.00122,-2.984e-4 -0.00521,-0.00116 -0.00886,-0.00193 -0.00482,-0.00101 -0.02368,-0.018112 -0.068396,-0.0619 C 4.508249,3.2619837 4.2634659,3.0087407 4.2597611,3 c -0.00439,-0.01034 -0.00385,-0.018503 0.0019,-0.028767 0.00537,-0.00961 0.108236,-0.1022079 0.1187483,-0.1068987 0.0095,-0.00426 0.02275,-0.00334 0.031467,0.0021 0.00431,0.00272 0.061504,0.05871 0.1270922,0.1244749 0.1308703,0.1312215 0.1264805,0.127569 0.1464044,0.1218193 0.010181,-0.00295 0.019352,-0.011756 0.3502071,-0.3368342 0.1115213,-0.1095759 0.2021851,-0.1969651 0.2056734,-0.1982472 0.00886,-0.00326 0.020732,-0.00287 0.028976,0.00101 0.010682,0.00495 0.1134267,0.107508 0.1175724,0.1173054 0.00456,0.010795 0.00433,0.018162 -9.28e-4,0.028867 -0.003,0.00612 -0.110993,0.1135386 -0.3470963,0.3452749 -0.188503,0.1850168 -0.3442589,0.3372714 -0.3461245,0.3383442 -0.00415,0.0024 -0.016252,0.0052 -0.019274,0.00442 z"
           id="path3507" /><path
           d="m 5.2518807,7.49129 c 0.013042,0.01304 0.013042,0.03442 0,0.04746 L 4.9903807,7.8 c -0.013042,0.013 -0.013042,0.03442 0,0.0475 l 0.261375,0.261333 c 0.013042,0.01304 0.013042,0.03442 0,0.0475 l -0.095208,0.09488 c -0.013083,0.013 -0.0345,0.013 -0.047583,0 L 4.8476723,7.989915 c -0.013042,-0.01304 -0.0345,-0.01304 -0.047542,0 l -0.2615,0.261125 c -0.013042,0.01304 -0.0345,0.01304 -0.047542,0 l -0.095083,-0.095 c -0.013042,-0.01304 -0.013042,-0.03442 0,-0.0475 L 4.6575886,7.847332 c 0.013042,-0.013 0.013042,-0.03442 0,-0.0475 L 4.396214,7.538457 c -0.013083,-0.01304 -0.013083,-0.03446 0,-0.0475 l 0.095167,-0.09492 c 0.013125,-0.013 0.0345,-0.013 0.047583,4.2e-5 l 0.26125,0.26125 c 0.013083,0.01308 0.0345,0.01308 0.047542,4.2e-5 l 0.2615,-0.261125 c 0.013,-0.013 0.034417,-0.013 0.047542,0 z"
           id="path3641"
           style="fill:#e01b24;stroke-width:0.0416667" /><path
           d="m 5.2518807,3.84379 c 0.013042,0.01304 0.013042,0.03442 0,0.04746 l -0.2615,0.26125 c -0.013042,0.013 -0.013042,0.03442 0,0.0475 l 0.261375,0.261333 c 0.013042,0.01304 0.013042,0.03442 0,0.0475 l -0.095208,0.09488 c -0.013083,0.013 -0.0345,0.013 -0.047583,0 L 4.8476723,4.342415 c -0.013042,-0.01304 -0.0345,-0.01304 -0.047542,0 l -0.2615,0.261125 c -0.013042,0.01304 -0.0345,0.01304 -0.047542,0 l -0.095083,-0.095 c -0.013042,-0.01304 -0.013042,-0.03442 0,-0.0475 L 4.6575886,4.199832 c 0.013042,-0.013 0.013042,-0.03442 0,-0.0475 L 4.396214,3.890957 c -0.013083,-0.01304 -0.013083,-0.03446 0,-0.0475 l 0.095167,-0.09492 c 0.013125,-0.013 0.0345,-0.013 0.047583,4.2e-5 l 0.26125,0.26125 c 0.013083,0.01308 0.0345,0.01308 0.047542,4.2e-5 l 0.2615,-0.261125 c 0.013,-0.013 0.034417,-0.013 0.047542,0 z"
           id="path3649"
           style="fill:#ff7800;stroke-width:0.0416667" /><path
           d="m 5.2518807,5.170726 c 0.013042,0.01304 0.013042,0.03442 0,0.04746 l -0.2615,0.26125 c -0.013042,0.013 -0.013042,0.03442 0,0.0475 l 0.261375,0.261333 c 0.013042,0.01304 0.013042,0.03442 0,0.0475 l -0.095208,0.09488 c -0.013083,0.013 -0.0345,0.013 -0.047583,0 L 4.8476723,5.669351 c -0.013042,-0.01304 -0.0345,-0.01304 -0.047542,0 l -0.2615,0.261125 c -0.013042,0.01304 -0.0345,0.01304 -0.047542,0 l -0.095083,-0.095 c -0.013042,-0.01304 -0.013042,-0.03442 0,-0.0475 L 4.6575886,5.526768 c 0.013042,-0.013 0.013042,-0.03442 0,-0.0475 L 4.396214,5.217893 c -0.013083,-0.01304 -0.013083,-0.03446 0,-0.0475 l 0.095167,-0.09492 c 0.013125,-0.013 0.0345,-0.013 0.047583,4.2e-5 l 0.26125,0.26125 c 0.013083,0.01308 0.0345,0.01308 0.047542,4.2e-5 l 0.2615,-0.261125 c 0.013,-0.013 0.034417,-0.013 0.047542,0 z"
           id="path3651"
           style="fill:#e01b24;stroke-width:0.0416667" /><path
           d="m 5.2518807,6.301375 c 0.013042,0.01304 0.013042,0.03442 0,0.04746 l -0.2615,0.26125 c -0.013042,0.013 -0.013042,0.03442 0,0.0475 l 0.261375,0.261333 c 0.013042,0.01304 0.013042,0.03442 0,0.0475 l -0.095208,0.09488 c -0.013083,0.013 -0.0345,0.013 -0.047583,0 L 4.8476723,6.8 c -0.013042,-0.01304 -0.0345,-0.01304 -0.047542,0 l -0.2615,0.261125 c -0.013042,0.01304 -0.0345,0.01304 -0.047542,0 l -0.095083,-0.095 c -0.013042,-0.01304 -0.013042,-0.03442 0,-0.0475 L 4.6575886,6.657417 c 0.013042,-0.013 0.013042,-0.03442 0,-0.0475 L 4.396214,6.348542 c -0.013083,-0.01304 -0.013083,-0.03446 0,-0.0475 l 0.095167,-0.09492 c 0.013125,-0.013 0.0345,-0.013 0.047583,4.2e-5 l 0.26125,0.26125 c 0.013083,0.01308 0.0345,0.01308 0.047542,4.2e-5 l 0.2615,-0.261125 c 0.013,-0.013 0.034417,-0.013 0.047542,0 z"
           id="path3653"
           style="fill:#e01b24;stroke-width:0.0416667" /></g></g><g
       id="g3740"><text
         xml:space="preserve"
         style="font-style:italic;font-size:1.22222px;font-family:'Atkinson Hyperlegible';-inkscape-font-specification:'Atkinson Hyperlegible Italic';fill:#000000;fill-rule:evenodd;stroke-width:0.08;stroke-linecap:round;stroke-linejoin:bevel;stroke-dasharray:0.24, 0.24;paint-order:markers stroke fill"
         x="7.5193334"
         y="2.1853333"
         id="text416"><tspan
           sodipodi:role="line"
           id="tspan414"
           style="font-style:normal;stroke-width:0.08"
           x="7.5193334"
           y="2.1853333">Inc-A</tspan></text><g
         id="g3699"
         transform="translate(0.06144838)"><path
           style="fill:#1c71d8;stroke:none;stroke-width:0.999998"
           d="m 7.956074,4.6354938 c -0.00122,-2.984e-4 -0.00521,-0.00116 -0.00886,-0.00193 -0.00482,-0.00101 -0.02368,-0.018112 -0.068396,-0.0619 -0.088871,-0.087036 -0.3336541,-0.340279 -0.3373589,-0.3490197 -0.00439,-0.01034 -0.00385,-0.018503 0.0019,-0.028767 0.00537,-0.00961 0.108236,-0.1022079 0.1187483,-0.1068987 0.0095,-0.00426 0.02275,-0.00334 0.031467,0.0021 0.00431,0.00272 0.061504,0.05871 0.1270922,0.1244749 0.1308703,0.1312215 0.1264805,0.127569 0.1464044,0.1218193 0.010181,-0.00295 0.019352,-0.011756 0.3502071,-0.3368342 0.1115213,-0.1095759 0.2021851,-0.1969651 0.2056734,-0.1982472 0.00886,-0.00326 0.020732,-0.00287 0.028976,0.00101 0.010682,0.00495 0.1134267,0.107508 0.1175724,0.1173054 0.00456,0.010795 0.00433,0.018162 -9.28e-4,0.028867 -0.003,0.00612 -0.110993,0.1135386 -0.3470963,0.3452749 -0.188503,0.1850168 -0.3442589,0.3372714 -0.3461245,0.3383442 -0.00415,0.0024 -0.016252,0.0052 -0.019274,0.00442 z"
           id="path3511" /><path
           d="m 8.4042084,2.69129 c 0.013042,0.01304 0.013042,0.03442 0,0.04746 L 8.1427084,3 c -0.013042,0.013 -0.013042,0.03442 0,0.0475 l 0.261375,0.261333 c 0.013042,0.01304 0.013042,0.03442 0,0.0475 l -0.095208,0.09488 c -0.013083,0.013 -0.0345,0.013 -0.047583,0 L 8,3.189915 c -0.013042,-0.01304 -0.0345,-0.01304 -0.047542,0 l -0.2615,0.261125 c -0.013042,0.01304 -0.0345,0.01304 -0.047542,0 l -0.095083,-0.095 c -0.013042,-0.01304 -0.013042,-0.03442 0,-0.0475 L 7.8099163,3.047332 c 0.013042,-0.013 0.013042,-0.03442 0,-0.0475 L 7.5485417,2.738457 c -0.013083,-0.01304 -0.013083,-0.03446 0,-0.0475 l 0.095167,-0.09492 c 0.013125,-0.013 0.0345,-0.013 0.047583,4.2e-5 l 0.26125,0.26125 c 0.013083,0.01308 0.0345,0.01308 0.047542,4.2e-5 l 0.2615,-0.261125 c 0.013,-0.013 0.034417,-0.013 0.047542,0 z"
           id="path3655"
           style="fill:#ff7800;stroke-width:0.0416667" /><path
           d="m 8.4042084,5.0777735 c 0.013042,0.01304 0.013042,0.03442 0,0.04746 l -0.2615,0.26125 c -0.013042,0.013 -0.013042,0.03442 0,0.0475 l 0.261375,0.261333 c 0.013042,0.01304 0.013042,0.03442 0,0.0475 l -0.095208,0.09488 c -0.013083,0.013 -0.0345,0.013 -0.047583,0 L 8,5.5763985 c -0.013042,-0.01304 -0.0345,-0.01304 -0.047542,0 l -0.2615,0.261125 c -0.013042,0.01304 -0.0345,0.01304 -0.047542,0 l -0.095083,-0.095 c -0.013042,-0.01304 -0.013042,-0.03442 0,-0.0475 l 0.2615833,-0.261208 c 0.013042,-0.013 0.013042,-0.03442 0,-0.0475 L 7.5485417,5.1249405 c -0.013083,-0.01304 -0.013083,-0.03446 0,-0.0475 l 0.095167,-0.09492 c 0.013125,-0.013 0.0345,-0.013 0.047583,4.2e-5 l 0.26125,0.26125 c 0.013083,0.01308 0.0345,0.01308 0.047542,4.2e-5 l 0.2615,-0.261125 c 0.013,-0.013 0.034417,-0.013 0.047542,0 z"
           id="path3657"
           style="fill:#ff7800;stroke-width:0.0416667" /><path
           d="m 8.4042084,6.2895743 c 0.013042,0.01304 0.013042,0.03442 0,0.04746 l -0.2615,0.26125 c -0.013042,0.013 -0.013042,0.03442 0,0.0475 l 0.261375,0.261333 c 0.013042,0.01304 0.013042,0.03442 0,0.0475 l -0.095208,0.09488 c -0.013083,0.013 -0.0345,0.013 -0.047583,0 L 8,6.7881993 c -0.013042,-0.01304 -0.0345,-0.01304 -0.047542,0 l -0.2615,0.261125 c -0.013042,0.01304 -0.0345,0.01304 -0.047542,0 l -0.095083,-0.095 c -0.013042,-0.01304 -0.013042,-0.03442 0,-0.0475 l 0.2615833,-0.261208 c 0.013042,-0.013 0.013042,-0.03442 0,-0.0475 L 7.5485417,6.3367413 c -0.013083,-0.01304 -0.013083,-0.03446 0,-0.0475 l 0.095167,-0.09492 c 0.013125,-0.013 0.0345,-0.013 0.047583,4.2e-5 l 0.26125,0.26125 c 0.013083,0.01308 0.0345,0.01308 0.047542,4.2e-5 l 0.2615,-0.261125 c 0.013,-0.013 0.034417,-0.013 0.047542,0 z"
           id="path3659"
           style="fill:#e01b24;stroke-width:0.0416667" /><path
           d="m 8.4042084,7.501375 c 0.013042,0.01304 0.013042,0.03442 0,0.04746 l -0.2615,0.26125 c -0.013042,0.013 -0.013042,0.03442 0,0.0475 l 0.261375,0.261333 c 0.013042,0.01304 0.013042,0.03442 0,0.0475 l -0.095208,0.09488 c -0.013083,0.013 -0.0345,0.013 -0.047583,0 L 8,8 C 7.986958,7.98696 7.9655,7.98696 7.952458,8 l -0.2615,0.261125 c -0.013042,0.01304 -0.0345,0.01304 -0.047542,0 l -0.095083,-0.095 c -0.013042,-0.01304 -0.013042,-0.03442 0,-0.0475 L 7.8099163,7.857417 c 0.013042,-0.013 0.013042,-0.03442 0,-0.0475 L 7.5485417,7.548542 c -0.013083,-0.01304 -0.013083,-0.03446 0,-0.0475 l 0.095167,-0.09492 c 0.013125,-0.013 0.0345,-0.013 0.047583,4.2e-5 l 0.26125,0.26125 c 0.013083,0.01308 0.0345,0.01308 0.047542,4.2e-5 l 0.2615,-0.261125 c 0.013,-0.013 0.034417,-0.013 0.047542,0 z"
           id="path3661"
           style="fill:#e01b24;stroke-width:0.0416667" /></g></g><g
       id="g3750"><text
         xml:space="preserve"
         style="font-style:italic;font-size:1.22222px;font-family:'Atkinson Hyperlegible';-inkscape-font-specification:'Atkinson Hyperlegible Italic';fill:#000000;fill-rule:evenodd;stroke-width:0.08;stroke-linecap:round;stroke-linejoin:bevel;stroke-dasharray:0.24, 0.24;paint-order:markers stroke fill"
         x="10.919333"
         y="2.1853333"
         id="text420"><tspan
           sodipodi:role="line"
           id="tspan418"
           style="font-style:normal;stroke-width:0.08"
           x="10.919333"
           y="2.1853333">Inc-B</tspan></text><g
         id="g3706"
         transform="translate(0.01389997)"><path
           style="fill:#1c71d8;stroke:none;stroke-width:0.999998"
           d="m 11.403655,5.818609 c -0.0012,-2.984e-4 -0.0052,-0.00116 -0.0089,-0.00193 -0.0048,-0.00101 -0.02368,-0.018112 -0.0684,-0.0619 -0.08887,-0.087036 -0.333654,-0.340279 -0.337359,-0.3490197 -0.0044,-0.01034 -0.0038,-0.018503 0.0019,-0.028767 0.0054,-0.00961 0.108236,-0.1022079 0.118749,-0.1068987 0.0095,-0.00426 0.02275,-0.00334 0.03147,0.0021 0.0043,0.00272 0.0615,0.05871 0.127092,0.1244749 0.13087,0.1312215 0.12648,0.127569 0.146404,0.1218193 0.01018,-0.00295 0.01935,-0.011756 0.350207,-0.3368342 0.111522,-0.1095759 0.202186,-0.1969651 0.205674,-0.1982472 0.0089,-0.00326 0.02073,-0.00287 0.02898,0.00101 0.01068,0.00495 0.113427,0.107508 0.117572,0.1173054 0.0046,0.010795 0.0043,0.018162 -9.28e-4,0.028867 -0.003,0.00612 -0.110956,0.1135386 -0.347059,0.3452749 -0.188503,0.1850168 -0.344259,0.3372714 -0.346125,0.3383442 -0.0042,0.0024 -0.01625,0.0052 -0.01927,0.00442 z"
           id="path3513" /><path
           d="m 11.851749,2.633919 c 0.01304,0.01304 0.01304,0.03442 0,0.04746 l -0.2615,0.26125 c -0.01304,0.013 -0.01304,0.03442 0,0.0475 l 0.261375,0.261333 c 0.01304,0.01304 0.01304,0.03442 0,0.0475 l -0.09521,0.09488 c -0.01308,0.013 -0.0345,0.013 -0.04758,0 L 11.44754,3.132544 c -0.01304,-0.01304 -0.0345,-0.01304 -0.04754,0 l -0.2615,0.261125 c -0.01304,0.01304 -0.0345,0.01304 -0.04754,0 l -0.09508,-0.095 c -0.01304,-0.01304 -0.01304,-0.03442 0,-0.0475 l 0.261584,-0.261208 c 0.01304,-0.013 0.01304,-0.03442 0,-0.0475 L 10.996082,2.681086 c -0.01308,-0.01304 -0.01308,-0.03446 0,-0.0475 l 0.09517,-0.09492 c 0.01312,-0.013 0.0345,-0.013 0.04758,4.2e-5 l 0.26125,0.26125 c 0.01308,0.01308 0.0345,0.01308 0.04754,4.2e-5 l 0.2615,-0.261125 c 0.013,-0.013 0.03442,-0.013 0.04754,0 z"
           id="path3663"
           style="fill:#e01b24;stroke-width:0.0416667" /><path
           d="m 11.851749,3.8600625 c 0.01304,0.01304 0.01304,0.03442 0,0.04746 l -0.2615,0.26125 c -0.01304,0.013 -0.01304,0.03442 0,0.0475 l 0.261375,0.261333 c 0.01304,0.01304 0.01304,0.03442 0,0.0475 l -0.09521,0.09488 c -0.01308,0.013 -0.0345,0.013 -0.04758,0 L 11.44754,4.3586875 c -0.01304,-0.01304 -0.0345,-0.01304 -0.04754,0 l -0.2615,0.261125 c -0.01304,0.01304 -0.0345,0.01304 -0.04754,0 l -0.09508,-0.095 c -0.01304,-0.01304 -0.01304,-0.03442 0,-0.0475 l 0.261584,-0.261208 c 0.01304,-0.013 0.01304,-0.03442 0,-0.0475 l -0.261382,-0.261375 c -0.01308,-0.01304 -0.01308,-0.03446 0,-0.0475 l 0.09517,-0.09492 c 0.01312,-0.013 0.0345,-0.013 0.04758,4.2e-5 l 0.26125,0.26125 c 0.01308,0.01308 0.0345,0.01308 0.04754,4.2e-5 l 0.2615,-0.261125 c 0.013,-0.013 0.03442,-0.013 0.04754,0 z"
           id="path3665"
           style="fill:#ff7800;stroke-width:0.0416667" /><path
           d="m 11.851749,6.2752315 c 0.01304,0.01304 0.01304,0.03442 0,0.04746 l -0.2615,0.26125 c -0.01304,0.013 -0.01304,0.03442 0,0.0475 l 0.261375,0.261333 c 0.01304,0.01304 0.01304,0.03442 0,0.0475 l -0.09521,0.09488 c -0.01308,0.013 -0.0345,0.013 -0.04758,0 L 11.44754,6.7738565 c -0.01304,-0.01304 -0.0345,-0.01304 -0.04754,0 l -0.2615,0.261125 c -0.01304,0.01304 -0.0345,0.01304 -0.04754,0 l -0.09508,-0.095 c -0.01304,-0.01304 -0.01304,-0.03442 0,-0.0475 l 0.261584,-0.261208 c 0.01304,-0.013 0.01304,-0.03442 0,-0.0475 l -0.261382,-0.261375 c -0.01308,-0.01304 -0.01308,-0.03446 0,-0.0475 l 0.09517,-0.09492 c 0.01312,-0.013 0.0345,-0.013 0.04758,4.2e-5 l 0.26125,0.26125 c 0.01308,0.01308 0.0345,0.01308 0.04754,4.2e-5 l 0.2615,-0.261125 c 0.013,-0.013 0.03442,-0.013 0.04754,0 z"
           id="path3667"
           style="fill:#ff7800;stroke-width:0.0416667" /><path
           d="m 11.851749,7.501375 c 0.01304,0.01304 0.01304,0.03442 0,0.04746 l -0.2615,0.26125 c -0.01304,0.013 -0.01304,0.03442 0,0.0475 l 0.261375,0.261333 c 0.01304,0.01304 0.01304,0.03442 0,0.0475 l -0.09521,0.09488 c -0.01308,0.013 -0.0345,0.013 -0.04758,0 L 11.44754,8 C 11.4345,7.98696 11.41304,7.98696 11.4,8 l -0.2615,0.261125 c -0.01304,0.01304 -0.0345,0.01304 -0.04754,0 l -0.09508,-0.095 c -0.01304,-0.01304 -0.01304,-0.03442 0,-0.0475 l 0.261584,-0.261208 c 0.01304,-0.013 0.01304,-0.03442 0,-0.0475 L 10.996082,7.548542 c -0.01308,-0.01304 -0.01308,-0.03446 0,-0.0475 l 0.09517,-0.09492 c 0.01312,-0.013 0.0345,-0.013 0.04758,4.2e-5 l 0.26125,0.26125 c 0.01308,0.01308 0.0345,0.01308 0.04754,4.2e-5 l 0.2615,-0.261125 c 0.013,-0.013 0.03442,-0.013 0.04754,0 z"
           id="path3669"
           style="fill:#e01b24;stroke-width:0.0416667" /></g></g><g
       id="g3760"><text
         xml:space="preserve"
         style="font-style:italic;font-size:1.22222px;font-family:'Atkinson Hyperlegible';-inkscape-font-specification:'Atkinson Hyperlegible Italic';fill:#000000;fill-rule:evenodd;stroke-width:0.08;stroke-linecap:round;stroke-linejoin:bevel;stroke-dasharray:0.24, 0.24;paint-order:markers stroke fill"
         x="14.319333"
         y="2.1853333"
         id="text424"><tspan
           sodipodi:role="line"
           id="tspan422"
           style="font-style:normal;stroke-width:0.08"
           x="14.319333"
           y="2.1853333">Inc-C</tspan></text><g
         id="g3713"
         transform="translate(0.06152159)"><path
           style="fill:#1c71d8;stroke:none;stroke-width:0.999998"
           d="m 14.756033,7.0015637 c -0.0012,-2.984e-4 -0.0052,-0.00116 -0.0089,-0.00193 -0.0048,-0.00101 -0.02368,-0.018112 -0.0684,-0.0619 -0.08887,-0.087036 -0.333654,-0.340279 -0.337359,-0.3490197 -0.0044,-0.01034 -0.0038,-0.018503 0.0019,-0.028767 0.0054,-0.00961 0.108236,-0.1022079 0.118749,-0.1068987 0.0095,-0.00426 0.02275,-0.00334 0.03147,0.0021 0.0043,0.00272 0.0615,0.05871 0.127092,0.1244749 0.13087,0.1312215 0.12648,0.127569 0.146404,0.1218193 0.01018,-0.00295 0.01935,-0.011756 0.350207,-0.3368342 0.111522,-0.1095759 0.202186,-0.1969651 0.205674,-0.1982472 0.0089,-0.00326 0.02073,-0.00287 0.02898,0.00101 0.01068,0.00495 0.113427,0.107508 0.117572,0.1173054 0.0046,0.010795 0.0043,0.018162 -9.28e-4,0.028867 -0.003,0.00612 -0.110956,0.1135386 -0.347059,0.3452749 -0.188503,0.1850168 -0.344259,0.3372714 -0.346125,0.3383442 -0.0042,0.0024 -0.01625,0.0052 -0.01927,0.00442 z"
           id="path3515" /><path
           d="m 15.204127,7.44379 c 0.01304,0.01304 0.01304,0.03442 0,0.04746 l -0.2615,0.26125 c -0.01304,0.013 -0.01304,0.03442 0,0.0475 l 0.261375,0.261333 c 0.01304,0.01304 0.01304,0.03442 0,0.0475 l -0.09521,0.09488 c -0.01308,0.013 -0.0345,0.013 -0.04758,0 L 14.799918,7.942415 c -0.01304,-0.01304 -0.0345,-0.01304 -0.04754,0 l -0.2615,0.261125 c -0.01304,0.01304 -0.0345,0.01304 -0.04754,0 l -0.09508,-0.095 c -0.01304,-0.01304 -0.01304,-0.03442 0,-0.0475 l 0.261584,-0.261208 c 0.01304,-0.013 0.01304,-0.03442 0,-0.0475 L 14.34846,7.490957 c -0.01308,-0.01304 -0.01308,-0.03446 0,-0.0475 l 0.09517,-0.09492 c 0.01312,-0.013 0.0345,-0.013 0.04758,4.2e-5 l 0.26125,0.26125 c 0.01308,0.01308 0.0345,0.01308 0.04754,4.2e-5 l 0.2615,-0.261125 c 0.013,-0.013 0.03442,-0.013 0.04754,0 z"
           id="path3671"
           style="fill:#ff7800;stroke-width:0.0416667" /><path
           d="m 15.204127,5.0574135 c 0.01304,0.01304 0.01304,0.03442 0,0.04746 l -0.2615,0.26125 c -0.01304,0.013 -0.01304,0.03442 0,0.0475 l 0.261375,0.261333 c 0.01304,0.01304 0.01304,0.03442 0,0.0475 l -0.09521,0.09488 c -0.01308,0.013 -0.0345,0.013 -0.04758,0 l -0.261294,-0.261298 c -0.01304,-0.01304 -0.0345,-0.01304 -0.04754,0 l -0.2615,0.261125 c -0.01304,0.01304 -0.0345,0.01304 -0.04754,0 l -0.09508,-0.095 c -0.01304,-0.01304 -0.01304,-0.03442 0,-0.0475 l 0.261584,-0.261208 c 0.01304,-0.013 0.01304,-0.03442 0,-0.0475 L 14.34846,5.1045805 c -0.01308,-0.01304 -0.01308,-0.03446 0,-0.0475 l 0.09517,-0.09492 c 0.01312,-0.013 0.0345,-0.013 0.04758,4.2e-5 l 0.26125,0.26125 c 0.01308,0.01308 0.0345,0.01308 0.04754,4.2e-5 l 0.2615,-0.261125 c 0.013,-0.013 0.03442,-0.013 0.04754,0 z"
           id="path3673"
           style="fill:#ff7800;stroke-width:0.0416667" /><path
           d="m 15.204127,3.8456662 c 0.01304,0.01304 0.01304,0.03442 0,0.04746 l -0.2615,0.26125 c -0.01304,0.013 -0.01304,0.03442 0,0.0475 l 0.261375,0.261333 c 0.01304,0.01304 0.01304,0.03442 0,0.0475 l -0.09521,0.09488 c -0.01308,0.013 -0.0345,0.013 -0.04758,0 l -0.261294,-0.261298 c -0.01304,-0.01304 -0.0345,-0.01304 -0.04754,0 l -0.2615,0.261125 c -0.01304,0.01304 -0.0345,0.01304 -0.04754,0 l -0.09508,-0.095 c -0.01304,-0.01304 -0.01304,-0.03442 0,-0.0475 l 0.261584,-0.261208 c 0.01304,-0.013 0.01304,-0.03442 0,-0.0475 L 14.34846,3.8928332 c -0.01308,-0.01304 -0.01308,-0.03446 0,-0.0475 l 0.09517,-0.09492 c 0.01312,-0.013 0.0345,-0.013 0.04758,4.2e-5 l 0.26125,0.26125 c 0.01308,0.01308 0.0345,0.01308 0.04754,4.2e-5 l 0.2615,-0.261125 c 0.013,-0.013 0.03442,-0.013 0.04754,0 z"
           id="path3675"
           style="fill:#e01b24;stroke-width:0.0416667" /><path
           d="m 15.204127,2.633919 c 0.01304,0.01304 0.01304,0.03442 0,0.04746 l -0.2615,0.26125 c -0.01304,0.013 -0.01304,0.03442 0,0.0475 l 0.261375,0.261333 c 0.01304,0.01304 0.01304,0.03442 0,0.0475 l -0.09521,0.09488 c -0.01308,0.013 -0.0345,0.013 -0.04758,0 L 14.799918,3.132544 c -0.01304,-0.01304 -0.0345,-0.01304 -0.04754,0 l -0.2615,0.261125 c -0.01304,0.01304 -0.0345,0.01304 -0.04754,0 l -0.09508,-0.095 c -0.01304,-0.01304 -0.01304,-0.03442 0,-0.0475 l 0.261584,-0.261208 c 0.01304,-0.013 0.01304,-0.03442 0,-0.0475 L 14.34846,2.681086 c -0.01308,-0.01304 -0.01308,-0.03446 0,-0.0475 l 0.09517,-0.09492 c 0.01312,-0.013 0.0345,-0.013 0.04758,4.2e-5 l 0.26125,0.26125 C 14.76554,2.813038 14.78696,2.813038 14.8,2.8 l 0.2615,-0.261125 c 0.013,-0.013 0.03442,-0.013 0.04754,0 z"
           id="path3677"
           style="fill:#e01b24;stroke-width:0.0416667" /></g></g><g
       id="g3770"><text
         xml:space="preserve"
         style="font-style:italic;font-size:1.22222px;font-family:'Atkinson Hyperlegible';-inkscape-font-specification:'Atkinson Hyperlegible Italic';fill:#000000;fill-rule:evenodd;stroke-width:0.08;stroke-linecap:round;stroke-linejoin:bevel;stroke-dasharray:0.24, 0.24;paint-order:markers stroke fill"
         x="17.707111"
         y="2.2"
         id="text428"><tspan
           sodipodi:role="line"
           id="tspan426"
           style="font-style:normal;stroke-width:0.08"
           x="17.707111"
           y="2.2">EL</tspan></text><g
         id="g3720"
         transform="translate(0.06144007)"><path
           style="fill:#1c71d8;stroke:none;stroke-width:0.999998"
           d="m 18.156115,8.2128497 c -0.0012,-2.984e-4 -0.0052,-0.00116 -0.0089,-0.00193 -0.0048,-0.00101 -0.02368,-0.018112 -0.0684,-0.0619 C 17.989945,8.0619837 17.745161,7.8087407 17.741456,7.8 c -0.0044,-0.01034 -0.0038,-0.018503 0.0019,-0.028767 0.0054,-0.00961 0.108236,-0.1022079 0.118749,-0.1068987 0.0095,-0.00426 0.02275,-0.00334 0.03147,0.0021 0.0043,0.00272 0.0615,0.05871 0.127092,0.1244749 0.13087,0.1312215 0.12648,0.127569 0.146404,0.1218193 0.01018,-0.00295 0.01935,-0.011756 0.350207,-0.3368342 0.111522,-0.1095759 0.202186,-0.1969651 0.205674,-0.1982472 0.0089,-0.00326 0.02073,-0.00287 0.02898,0.00101 0.01068,0.00495 0.113427,0.107508 0.117572,0.1173054 0.0046,0.010795 0.0043,0.018162 -9.28e-4,0.028867 -0.003,0.00612 -0.110956,0.1135386 -0.347059,0.3452749 -0.188503,0.1850168 -0.344259,0.3372714 -0.346125,0.3383442 -0.0042,0.0024 -0.01625,0.0052 -0.01927,0.00442 z"
           id="path3517" /><path
           d="m 18.604209,2.633919 c 0.01304,0.01304 0.01304,0.03442 0,0.04746 l -0.2615,0.26125 c -0.01304,0.013 -0.01304,0.03442 0,0.0475 l 0.261375,0.261333 c 0.01304,0.01304 0.01304,0.03442 0,0.0475 l -0.09521,0.09488 c -0.01308,0.013 -0.0345,0.013 -0.04758,0 L 18.2,3.132544 c -0.01304,-0.01304 -0.0345,-0.01304 -0.04754,0 l -0.2615,0.261125 c -0.01304,0.01304 -0.0345,0.01304 -0.04754,0 l -0.09508,-0.095 c -0.01304,-0.01304 -0.01304,-0.03442 0,-0.0475 l 0.261584,-0.261208 c 0.01304,-0.013 0.01304,-0.03442 0,-0.0475 L 17.748542,2.681086 c -0.01308,-0.01304 -0.01308,-0.03446 0,-0.0475 l 0.09517,-0.09492 c 0.01312,-0.013 0.0345,-0.013 0.04758,4.2e-5 l 0.26125,0.26125 c 0.01308,0.01308 0.0345,0.01308 0.04754,4.2e-5 l 0.2615,-0.261125 c 0.013,-0.013 0.03442,-0.013 0.04754,0 z"
           id="path3679"
           style="fill:#e01b24;stroke-width:0.0416667" /><path
           d="m 18.604209,3.8455509 c 0.01304,0.01304 0.01304,0.03442 0,0.04746 l -0.2615,0.26125 c -0.01304,0.013 -0.01304,0.03442 0,0.0475 l 0.261375,0.261333 c 0.01304,0.01304 0.01304,0.03442 0,0.0475 l -0.09521,0.09488 c -0.01308,0.013 -0.0345,0.013 -0.04758,0 L 18.2,4.3441759 c -0.01304,-0.01304 -0.0345,-0.01304 -0.04754,0 l -0.2615,0.261125 c -0.01304,0.01304 -0.0345,0.01304 -0.04754,0 l -0.09508,-0.095 c -0.01304,-0.01304 -0.01304,-0.03442 0,-0.0475 l 0.261584,-0.261208 c 0.01304,-0.013 0.01304,-0.03442 0,-0.0475 l -0.261382,-0.261375 c -0.01308,-0.01304 -0.01308,-0.03446 0,-0.0475 l 0.09517,-0.09492 c 0.01312,-0.013 0.0345,-0.013 0.04758,4.2e-5 l 0.26125,0.26125 c 0.01308,0.01308 0.0345,0.01308 0.04754,4.2e-5 l 0.2615,-0.261125 c 0.013,-0.013 0.03442,-0.013 0.04754,0 z"
           id="path3681"
           style="fill:#e01b24;stroke-width:0.0416667" /><path
           d="m 18.604209,5.0571828 c 0.01304,0.01304 0.01304,0.03442 0,0.04746 l -0.2615,0.26125 c -0.01304,0.013 -0.01304,0.03442 0,0.0475 l 0.261375,0.261333 c 0.01304,0.01304 0.01304,0.03442 0,0.0475 l -0.09521,0.09488 c -0.01308,0.013 -0.0345,0.013 -0.04758,0 L 18.2,5.5558078 c -0.01304,-0.01304 -0.0345,-0.01304 -0.04754,0 l -0.2615,0.261125 c -0.01304,0.01304 -0.0345,0.01304 -0.04754,0 l -0.09508,-0.095 c -0.01304,-0.01304 -0.01304,-0.03442 0,-0.0475 l 0.261584,-0.261208 c 0.01304,-0.013 0.01304,-0.03442 0,-0.0475 l -0.261382,-0.261375 c -0.01308,-0.01304 -0.01308,-0.03446 0,-0.0475 l 0.09517,-0.09492 c 0.01312,-0.013 0.0345,-0.013 0.04758,4.2e-5 l 0.26125,0.26125 c 0.01308,0.01308 0.0345,0.01308 0.04754,4.2e-5 l 0.2615,-0.261125 c 0.013,-0.013 0.03442,-0.013 0.04754,0 z"
           id="path3683"
           style="fill:#e01b24;stroke-width:0.0416667" /><path
           d="m 18.604209,6.2688147 c 0.01304,0.01304 0.01304,0.03442 0,0.04746 l -0.2615,0.26125 c -0.01304,0.013 -0.01304,0.03442 0,0.0475 l 0.261375,0.261333 c 0.01304,0.01304 0.01304,0.03442 0,0.0475 l -0.09521,0.09488 c -0.01308,0.013 -0.0345,0.013 -0.04758,0 L 18.2,6.7674397 c -0.01304,-0.01304 -0.0345,-0.01304 -0.04754,0 l -0.2615,0.261125 c -0.01304,0.01304 -0.0345,0.01304 -0.04754,0 l -0.09508,-0.095 c -0.01304,-0.01304 -0.01304,-0.03442 0,-0.0475 l 0.261584,-0.261208 c 0.01304,-0.013 0.01304,-0.03442 0,-0.0475 l -0.261382,-0.261375 c -0.01308,-0.01304 -0.01308,-0.03446 0,-0.0475 l 0.09517,-0.09492 c 0.01312,-0.013 0.0345,-0.013 0.04758,4.2e-5 l 0.26125,0.26125 c 0.01308,0.01308 0.0345,0.01308 0.04754,4.2e-5 l 0.2615,-0.261125 c 0.013,-0.013 0.03442,-0.013 0.04754,0 z"
           id="path3685"
           style="fill:#ff7800;stroke-width:0.0416667" /></g></g></g></svg>
