<?xml version="1.0" encoding="UTF-8" standalone="no"?>
<!-- Created with Inkscape (http://www.inkscape.org/) -->

<svg
   width="9.4659929in"
   height="2.1232505in"
   viewBox="0 0 37.863972 8.4930019"
   version="1.1"
   id="svg658"
   xml:space="preserve"
   inkscape:version="1.2.2 (b0a8486541, 2022-12-01)"
   sodipodi:docname="repeatability-table.svg"
   inkscape:export-filename="repeatability-table.png"
   inkscape:export-xdpi="300"
   inkscape:export-ydpi="300"
   xmlns:inkscape="http://www.inkscape.org/namespaces/inkscape"
   xmlns:sodipodi="http://sodipodi.sourceforge.net/DTD/sodipodi-0.dtd"
   xmlns="http://www.w3.org/2000/svg"
   xmlns:svg="http://www.w3.org/2000/svg"><sodipodi:namedview
     id="namedview660"
     pagecolor="#ffffff"
     bordercolor="#000000"
     borderopacity="0.25"
     inkscape:showpageshadow="2"
     inkscape:pageopacity="0.0"
     inkscape:pagecheckerboard="0"
     inkscape:deskcolor="#d1d1d1"
     inkscape:document-units="in"
     showgrid="true"
     inkscape:zoom="2"
     inkscape:cx="523.75"
     inkscape:cy="34.5"
     inkscape:window-width="3800"
     inkscape:window-height="2111"
     inkscape:window-x="3840"
     inkscape:window-y="0"
     inkscape:window-maximized="1"
     inkscape:current-layer="layer1"><inkscape:grid
       type="xygrid"
       id="grid779"
       units="in"
       spacingx="0.2"
       originx="0.039999997"
       originy="0.039999997"
       spacingy="0.2" /></sodipodi:namedview><defs
     id="defs655"><marker
       style="overflow:visible"
       id="Arrow3"
       refX="0"
       refY="0"
       orient="auto-start-reverse"
       inkscape:stockid="Arrow3"
       markerWidth="4.2071066"
       markerHeight="7"
       viewBox="0 0 4.2071068 7"
       inkscape:isstock="true"
       inkscape:collect="always"
       preserveAspectRatio="xMidYMid"><path
         style="fill:none;stroke:context-stroke;stroke-width:1;stroke-linecap:round"
         d="M 3,-3 0,0 3,3"
         id="arrow3"
         transform="rotate(180,0.125,0)"
         sodipodi:nodetypes="ccc" /></marker></defs><g
     inkscape:label="Layer 1"
     inkscape:groupmode="layer"
     id="layer1"
     transform="translate(0.04,0.04)"><text
       xml:space="preserve"
       style="font-style:italic;font-size:1.22222px;font-family:'Atkinson Hyperlegible';-inkscape-font-specification:'Atkinson Hyperlegible Italic';fill:#000000;fill-rule:evenodd;stroke-width:0.08;stroke-linecap:round;stroke-linejoin:bevel;stroke-dasharray:0.24, 0.24;paint-order:markers stroke fill"
       x="10.907111"
       y="0.98533338"
       id="text356"><tspan
         sodipodi:role="line"
         style="font-style:normal;stroke-width:0.08"
         x="10.907111"
         y="0.98533338"
         id="tspan358">Eval 2</tspan></text><text
       xml:space="preserve"
       style="font-style:italic;font-size:1.22222px;font-family:'Atkinson Hyperlegible';-inkscape-font-specification:'Atkinson Hyperlegible Italic';fill:#000000;fill-rule:evenodd;stroke-width:0.08;stroke-linecap:round;stroke-linejoin:bevel;stroke-dasharray:0.24, 0.24;paint-order:markers stroke fill"
       x="0.53139162"
       y="2.201776"
       id="text234"><tspan
         sodipodi:role="line"
         style="font-style:normal;stroke-width:0.08"
         x="0.53139162"
         y="2.201776"
         id="tspan244">Eval 1</tspan></text><text
       xml:space="preserve"
       style="font-style:italic;font-size:1.22222px;font-family:'Atkinson Hyperlegible';-inkscape-font-specification:'Atkinson Hyperlegible Italic';fill:#000000;fill-rule:evenodd;stroke-width:0.08;stroke-linecap:round;stroke-linejoin:bevel;stroke-dasharray:0.24, 0.24;paint-order:markers stroke fill"
       x="1.3325585"
       y="3.4164429"
       id="text450"><tspan
         sodipodi:role="line"
         id="tspan448"
         style="font-style:normal;stroke-width:0.08"
         x="1.3325585"
         y="3.4164429">ID</tspan></text><text
       xml:space="preserve"
       style="font-style:italic;font-size:1.22222px;font-family:'Atkinson Hyperlegible';-inkscape-font-specification:'Atkinson Hyperlegible Italic';fill:#000000;fill-rule:evenodd;stroke-width:0.08;stroke-linecap:round;stroke-linejoin:bevel;stroke-dasharray:0.24, 0.24;paint-order:markers stroke fill"
       x="0.47944897"
       y="4.6341081"
       id="text454"><tspan
         sodipodi:role="line"
         id="tspan452"
         style="font-style:normal;stroke-width:0.08"
         x="0.47944897"
         y="4.6341081">Inc-A</tspan></text><text
       xml:space="preserve"
       style="font-style:italic;font-size:1.22222px;font-family:'Atkinson Hyperlegible';-inkscape-font-specification:'Atkinson Hyperlegible Italic';fill:#000000;fill-rule:evenodd;stroke-width:0.08;stroke-linecap:round;stroke-linejoin:bevel;stroke-dasharray:0.24, 0.24;paint-order:markers stroke fill"
       x="0.50083786"
       y="5.8328857"
       id="text458"><tspan
         sodipodi:role="line"
         id="tspan456"
         style="font-style:normal;stroke-width:0.08"
         x="0.50083786"
         y="5.8328857">Inc-B</tspan></text><text
       xml:space="preserve"
       style="font-style:italic;font-size:1.22222px;font-family:'Atkinson Hyperlegible';-inkscape-font-specification:'Atkinson Hyperlegible Italic';fill:#000000;fill-rule:evenodd;stroke-width:0.08;stroke-linecap:round;stroke-linejoin:bevel;stroke-dasharray:0.24, 0.24;paint-order:markers stroke fill"
       x="0.47822678"
       y="7.0475521"
       id="text462"><tspan
         sodipodi:role="line"
         id="tspan460"
         style="font-style:normal;stroke-width:0.08"
         x="0.47822678"
         y="7.0475521">Inc-C</tspan></text><text
       xml:space="preserve"
       style="font-style:italic;font-size:1.22222px;font-family:'Atkinson Hyperlegible';-inkscape-font-specification:'Atkinson Hyperlegible Italic';fill:#000000;fill-rule:evenodd;stroke-width:0.08;stroke-linecap:round;stroke-linejoin:bevel;stroke-dasharray:0.24, 0.24;paint-order:markers stroke fill"
       x="1.2903919"
       y="8.2164431"
       id="text466"><tspan
         sodipodi:role="line"
         id="tspan464"
         style="font-style:normal;stroke-width:0.08"
         x="1.2903919"
         y="8.2164431">EL</tspan></text><g
       id="g3821"><path
         style="fill:#000000;fill-rule:evenodd;stroke:#000000;stroke-width:0.08;stroke-linecap:round;stroke-linejoin:bevel;stroke-dasharray:none;paint-order:markers stroke fill"
         d="m 0.00290765,1.1869983 4e-7,7.16"
         id="path1283"
         sodipodi:nodetypes="cc" /><g
         id="g3802"><path
           style="fill:#000000;fill-rule:evenodd;stroke:#000000;stroke-width:0.08;stroke-linecap:round;stroke-linejoin:bevel;stroke-dasharray:none;paint-order:markers stroke fill"
           d="M 0.00290768,2.3907131 21,2.4037146"
           id="path557"
           sodipodi:nodetypes="cc" /><path
           style="fill:#000000;fill-rule:evenodd;stroke:#000000;stroke-width:0.08;stroke-linecap:round;stroke-linejoin:bevel;stroke-dasharray:none;paint-order:markers stroke fill"
           d="M 0,8.4 20.997092,8.413002"
           id="path557-3"
           sodipodi:nodetypes="cc" /><path
           style="fill:#000000;fill-rule:evenodd;stroke:#000000;stroke-width:0.08;stroke-linecap:round;stroke-linejoin:bevel;stroke-dasharray:none;paint-order:markers stroke fill"
           d="M 0.00290773,1.1888557 21,1.2018573"
           id="path557-6"
           sodipodi:nodetypes="cc" /><path
           style="fill:#000000;fill-rule:evenodd;stroke:#000000;stroke-width:0.08;stroke-linecap:round;stroke-linejoin:bevel;stroke-dasharray:none;paint-order:markers stroke fill"
           d="M 4,0 H 21"
           id="path1281"
           sodipodi:nodetypes="cc" /><path
           style="fill:#000000;fill-rule:evenodd;stroke:#000000;stroke-width:0.08;stroke-linecap:round;stroke-linejoin:bevel;stroke-dasharray:none;paint-order:markers stroke fill"
           d="M 0.00290765,3.5925703 21,3.605572"
           id="path1285"
           sodipodi:nodetypes="cc" /><path
           style="fill:#000000;fill-rule:evenodd;stroke:#000000;stroke-width:0.08;stroke-linecap:round;stroke-linejoin:bevel;stroke-dasharray:none;paint-order:markers stroke fill"
           d="M 0.00290765,4.7944277 21,4.8074294"
           id="path1287"
           sodipodi:nodetypes="cc" /><path
           style="fill:#000000;fill-rule:evenodd;stroke:#000000;stroke-width:0.08;stroke-linecap:round;stroke-linejoin:bevel;stroke-dasharray:none;paint-order:markers stroke fill"
           d="M 0.00290765,5.9962851 21,6.0092868"
           id="path1289"
           sodipodi:nodetypes="cc" /><path
           style="fill:#000000;fill-rule:evenodd;stroke:#000000;stroke-width:0.08;stroke-linecap:round;stroke-linejoin:bevel;stroke-dasharray:none;paint-order:markers stroke fill"
           d="M 0.00290765,7.1981426 21,7.2111443"
           id="path1291"
           sodipodi:nodetypes="cc" /></g><g
         id="g3792"><path
           style="fill:#000000;fill-rule:evenodd;stroke:#000000;stroke-width:0.08;stroke-linecap:round;stroke-linejoin:bevel;stroke-dasharray:none;paint-order:markers stroke fill"
           d="M 3.9999998,9.0000001e-8 4,8.4"
           id="path1209"
           sodipodi:nodetypes="cc" /><path
           style="fill:#000000;fill-rule:evenodd;stroke:#000000;stroke-width:0.08;stroke-linecap:round;stroke-linejoin:bevel;stroke-dasharray:none;paint-order:markers stroke fill"
           d="M 21,9.5e-8 V 8.3999999"
           id="path1279"
           sodipodi:nodetypes="cc" /><path
           style="fill:#000000;fill-rule:evenodd;stroke:#000000;stroke-width:0.08;stroke-linecap:round;stroke-linejoin:bevel;stroke-dasharray:none;paint-order:markers stroke fill"
           d="M 7.4,1.2 V 8.4"
           id="path1293"
           sodipodi:nodetypes="cc" /><path
           style="fill:#000000;fill-rule:evenodd;stroke:#000000;stroke-width:0.08;stroke-linecap:round;stroke-linejoin:bevel;stroke-dasharray:none;paint-order:markers stroke fill"
           d="M 10.8,1.2 V 8.36"
           id="path1295"
           sodipodi:nodetypes="cc" /><path
           style="fill:#000000;fill-rule:evenodd;stroke:#000000;stroke-width:0.08;stroke-linecap:round;stroke-linejoin:bevel;stroke-dasharray:none;paint-order:markers stroke fill"
           d="M 14.2,1.2 V 8.36"
           id="path1297"
           sodipodi:nodetypes="cc" /><path
           style="fill:#000000;fill-rule:evenodd;stroke:#000000;stroke-width:0.08;stroke-linecap:round;stroke-linejoin:bevel;stroke-dasharray:none;paint-order:markers stroke fill"
           d="M 17.6,1.2 V 8.36"
           id="path1299"
           sodipodi:nodetypes="cc" /></g></g><rect
       style="opacity:0.25;mix-blend-mode:multiply;fill:#9a9996;fill-rule:evenodd;stroke:none;stroke-width:0.0799997;stroke-linecap:round;stroke-linejoin:bevel;paint-order:markers stroke fill"
       id="rect364-3"
       width="20.940002"
       height="1.12"
       x="-2.1059305e-09"
       y="3.6400001" /><text
       xml:space="preserve"
       style="font-style:italic;font-size:1.22222px;font-family:'Atkinson Hyperlegible';-inkscape-font-specification:'Atkinson Hyperlegible Italic';fill:#000000;fill-rule:evenodd;stroke-width:0.08;stroke-linecap:round;stroke-linejoin:bevel;stroke-dasharray:0.24, 0.24;paint-order:markers stroke fill"
       x="5"
       y="2.2"
       id="text412"><tspan
         sodipodi:role="line"
         id="tspan410"
         style="font-style:normal;stroke-width:0.08"
         x="5"
         y="2.2">ID </tspan></text><text
       xml:space="preserve"
       style="font-style:italic;font-size:1.22222px;font-family:'Atkinson Hyperlegible';-inkscape-font-specification:'Atkinson Hyperlegible Italic';fill:#000000;fill-rule:evenodd;stroke-width:0.08;stroke-linecap:round;stroke-linejoin:bevel;stroke-dasharray:0.24, 0.24;paint-order:markers stroke fill"
       x="7.5193334"
       y="2.1853333"
       id="text416"><tspan
         sodipodi:role="line"
         id="tspan414"
         style="font-style:normal;stroke-width:0.08"
         x="7.5193334"
         y="2.1853333">Inc-A</tspan></text><text
       xml:space="preserve"
       style="font-style:italic;font-size:1.22222px;font-family:'Atkinson Hyperlegible';-inkscape-font-specification:'Atkinson Hyperlegible Italic';fill:#000000;fill-rule:evenodd;stroke-width:0.08;stroke-linecap:round;stroke-linejoin:bevel;stroke-dasharray:0.24, 0.24;paint-order:markers stroke fill"
       x="10.919333"
       y="2.1853333"
       id="text420"><tspan
         sodipodi:role="line"
         id="tspan418"
         style="font-style:normal;stroke-width:0.08"
         x="10.919333"
         y="2.1853333">Inc-B</tspan></text><text
       xml:space="preserve"
       style="font-style:italic;font-size:1.22222px;font-family:'Atkinson Hyperlegible';-inkscape-font-specification:'Atkinson Hyperlegible Italic';fill:#000000;fill-rule:evenodd;stroke-width:0.08;stroke-linecap:round;stroke-linejoin:bevel;stroke-dasharray:0.24, 0.24;paint-order:markers stroke fill"
       x="14.319333"
       y="2.1853333"
       id="text424"><tspan
         sodipodi:role="line"
         id="tspan422"
         style="font-style:normal;stroke-width:0.08"
         x="14.319333"
         y="2.1853333">Inc-C</tspan></text><text
       xml:space="preserve"
       style="font-style:italic;font-size:1.22222px;font-family:'Atkinson Hyperlegible';-inkscape-font-specification:'Atkinson Hyperlegible Italic';fill:#000000;fill-rule:evenodd;stroke-width:0.08;stroke-linecap:round;stroke-linejoin:bevel;stroke-dasharray:0.24, 0.24;paint-order:markers stroke fill"
       x="18.707111"
       y="2.2164428"
       id="text428"><tspan
         sodipodi:role="line"
         id="tspan426"
         style="font-style:normal;stroke-width:0.08"
         x="18.707111"
         y="2.2164428">EL</tspan></text><text
       xml:space="preserve"
       style="font-style:normal;font-variant:normal;font-weight:normal;font-stretch:normal;font-size:1.22222px;line-height:1.11111px;font-family:'Atkinson Hyperlegible';-inkscape-font-specification:'Atkinson Hyperlegible, Normal';font-variant-ligatures:normal;font-variant-caps:normal;font-variant-numeric:normal;font-variant-east-asian:normal;word-spacing:0px;opacity:1;fill:#000000;fill-opacity:1;fill-rule:evenodd;stroke:none;stroke-width:0.08;stroke-linecap:round;stroke-linejoin:bevel;paint-order:markers stroke fill"
       x="22.519333"
       y="3.3385551"
       id="text2213"><tspan
         sodipodi:role="line"
         style="stroke-width:0.08"
         x="22.519333"
         y="3.3385551"
         id="tspan2215"
         rotate="0 0 0 0 0 0 0 0 0 0 0 0 0 0 0 0 0 0 0 0 0 0 0 0 0 0 0 0 0 0">If E1=ID, what is P(E2 = ID)?</tspan></text><path
       style="opacity:1;fill:#000000;fill-opacity:1;fill-rule:evenodd;stroke:#1a5fb4;stroke-width:0.107778;stroke-linecap:round;stroke-linejoin:bevel;stroke-dasharray:none;marker-end:url(#Arrow3);paint-order:markers stroke fill"
       d="m 21.041391,3.0000002 h 1.382534"
       id="path2271" /><rect
       style="opacity:1;fill:none;fill-opacity:1;fill-rule:evenodd;stroke:#1a5fb4;stroke-width:0.111111;stroke-linecap:round;stroke-linejoin:bevel;stroke-dasharray:none;paint-order:markers stroke fill"
       id="rect3273"
       width="16.888889"
       height="1.088889"
       x="4.0555553"
       y="2.4555554" /><rect
       style="opacity:1;fill:none;fill-opacity:1;fill-rule:evenodd;stroke:#ff7800;stroke-width:0.111111;stroke-linecap:round;stroke-linejoin:bevel;stroke-dasharray:none;paint-order:markers stroke fill"
       id="rect3557"
       width="16.6"
       height="5.6000004"
       x="4.2000003"
       y="2.6000001" /><g
       id="g3742"><path
         style="fill:#000000;stroke:#ffffff;stroke-width:0.00111111;stroke-dasharray:none"
         d="m 5.5550427,3.3964069 c -0.00122,-2.984e-4 -0.00521,-0.00116 -0.00886,-0.00193 -0.00482,-0.00101 -0.02368,-0.018112 -0.068396,-0.0619 -0.088871,-0.087036 -0.3336541,-0.340279 -0.3373589,-0.3490197 -0.00439,-0.01034 -0.00385,-0.018503 0.0019,-0.028767 0.00537,-0.00961 0.108236,-0.1022079 0.1187483,-0.1068987 0.0095,-0.00426 0.02275,-0.00334 0.031467,0.0021 0.00431,0.00272 0.061504,0.05871 0.1270922,0.1244749 0.1308703,0.1312215 0.1264805,0.127569 0.1464044,0.1218193 0.010181,-0.00295 0.019352,-0.011756 0.3502071,-0.3368342 0.1115213,-0.1095759 0.2021851,-0.1969651 0.2056734,-0.1982472 0.00886,-0.00326 0.020732,-0.00287 0.028976,0.00101 0.010682,0.00495 0.1134267,0.107508 0.1175724,0.1173054 0.00456,0.010795 0.00433,0.018162 -9.28e-4,0.028867 -0.003,0.00612 -0.110993,0.1135386 -0.3470963,0.3452749 -0.188503,0.1850168 -0.3442589,0.3372714 -0.3461245,0.3383442 -0.00415,0.0024 -0.016252,0.0052 -0.019274,0.00442 z"
         id="path3507" /><path
         d="m 6.1325474,7.4748472 c 0.013042,0.01304 0.013042,0.03442 0,0.04746 l -0.2615,0.26125 c -0.013042,0.013 -0.013042,0.03442 0,0.0475 l 0.261375,0.261333 c 0.013042,0.01304 0.013042,0.03442 0,0.0475 l -0.095208,0.09488 c -0.013083,0.013 -0.0345,0.013 -0.047583,0 L 5.728339,7.9734722 c -0.013042,-0.01304 -0.0345,-0.01304 -0.047542,0 l -0.2615,0.261125 c -0.013042,0.01304 -0.0345,0.01304 -0.047542,0 l -0.095083,-0.095 c -0.013042,-0.01304 -0.013042,-0.03442 0,-0.0475 l 0.2615833,-0.261208 c 0.013042,-0.013 0.013042,-0.03442 0,-0.0475 L 5.2768807,7.5220142 c -0.013083,-0.01304 -0.013083,-0.03446 0,-0.0475 l 0.095167,-0.09492 c 0.013125,-0.013 0.0345,-0.013 0.047583,4.2e-5 l 0.26125,0.26125 c 0.013083,0.01308 0.0345,0.01308 0.047542,4.2e-5 l 0.2615,-0.261125 c 0.013,-0.013 0.034417,-0.013 0.047542,0 z"
         id="path3641"
         style="fill:#000000;stroke:#ffffff;stroke-width:0.00111111;stroke-dasharray:none" /><path
         d="m 6.1325474,3.8273472 c 0.013042,0.01304 0.013042,0.03442 0,0.04746 l -0.2615,0.26125 c -0.013042,0.013 -0.013042,0.03442 0,0.0475 l 0.261375,0.261333 c 0.013042,0.01304 0.013042,0.03442 0,0.0475 l -0.095208,0.09488 c -0.013083,0.013 -0.0345,0.013 -0.047583,0 L 5.728339,4.3259722 c -0.013042,-0.01304 -0.0345,-0.01304 -0.047542,0 l -0.2615,0.261125 c -0.013042,0.01304 -0.0345,0.01304 -0.047542,0 l -0.095083,-0.095 c -0.013042,-0.01304 -0.013042,-0.03442 0,-0.0475 l 0.2615833,-0.261208 c 0.013042,-0.013 0.013042,-0.03442 0,-0.0475 L 5.2768807,3.8745142 c -0.013083,-0.01304 -0.013083,-0.03446 0,-0.0475 l 0.095167,-0.09492 c 0.013125,-0.013 0.0345,-0.013 0.047583,4.2e-5 l 0.26125,0.26125 c 0.013083,0.01308 0.0345,0.01308 0.047542,4.2e-5 l 0.2615,-0.261125 c 0.013,-0.013 0.034417,-0.013 0.047542,0 z"
         id="path3649"
         style="fill:#000000;stroke:#ffffff;stroke-width:0.00111111;stroke-dasharray:none" /><path
         d="m 6.1325474,5.1542832 c 0.013042,0.01304 0.013042,0.03442 0,0.04746 l -0.2615,0.26125 c -0.013042,0.013 -0.013042,0.03442 0,0.0475 l 0.261375,0.261333 c 0.013042,0.01304 0.013042,0.03442 0,0.0475 l -0.095208,0.09488 c -0.013083,0.013 -0.0345,0.013 -0.047583,0 L 5.728339,5.6529082 c -0.013042,-0.01304 -0.0345,-0.01304 -0.047542,0 l -0.2615,0.261125 c -0.013042,0.01304 -0.0345,0.01304 -0.047542,0 l -0.095083,-0.095 c -0.013042,-0.01304 -0.013042,-0.03442 0,-0.0475 l 0.2615833,-0.261208 c 0.013042,-0.013 0.013042,-0.03442 0,-0.0475 L 5.2768807,5.2014502 c -0.013083,-0.01304 -0.013083,-0.03446 0,-0.0475 l 0.095167,-0.09492 c 0.013125,-0.013 0.0345,-0.013 0.047583,4.2e-5 l 0.26125,0.26125 c 0.013083,0.01308 0.0345,0.01308 0.047542,4.2e-5 l 0.2615,-0.261125 c 0.013,-0.013 0.034417,-0.013 0.047542,0 z"
         id="path3651"
         style="fill:#000000;stroke:#ffffff;stroke-width:0.00111111;stroke-dasharray:none" /><path
         d="m 6.1325474,6.2849322 c 0.013042,0.01304 0.013042,0.03442 0,0.04746 l -0.2615,0.26125 c -0.013042,0.013 -0.013042,0.03442 0,0.0475 l 0.261375,0.261333 c 0.013042,0.01304 0.013042,0.03442 0,0.0475 l -0.095208,0.09488 c -0.013083,0.013 -0.0345,0.013 -0.047583,0 L 5.728339,6.7835572 c -0.013042,-0.01304 -0.0345,-0.01304 -0.047542,0 l -0.2615,0.261125 c -0.013042,0.01304 -0.0345,0.01304 -0.047542,0 l -0.095083,-0.095 c -0.013042,-0.01304 -0.013042,-0.03442 0,-0.0475 l 0.2615833,-0.261208 c 0.013042,-0.013 0.013042,-0.03442 0,-0.0475 L 5.2768807,6.3320992 c -0.013083,-0.01304 -0.013083,-0.03446 0,-0.0475 l 0.095167,-0.09492 c 0.013125,-0.013 0.0345,-0.013 0.047583,4.2e-5 l 0.26125,0.26125 c 0.013083,0.01308 0.0345,0.01308 0.047542,4.2e-5 l 0.2615,-0.261125 c 0.013,-0.013 0.034417,-0.013 0.047542,0 z"
         id="path3653"
         style="fill:#000000;stroke:#ffffff;stroke-width:0.00111111;stroke-dasharray:none" /><path
         style="fill:#000000;stroke:#ffffff;stroke-width:0.00111111;stroke-dasharray:none"
         d="m 8.8969299,4.6354938 c -0.00122,-2.984e-4 -0.00521,-0.00116 -0.00886,-0.00193 -0.00482,-0.00101 -0.02368,-0.018112 -0.068396,-0.0619 -0.088871,-0.087036 -0.3336541,-0.340279 -0.3373589,-0.3490197 -0.00439,-0.01034 -0.00385,-0.018503 0.0019,-0.028767 0.00537,-0.00961 0.108236,-0.1022079 0.1187483,-0.1068987 0.0095,-0.00426 0.02275,-0.00334 0.031467,0.0021 0.00431,0.00272 0.061504,0.05871 0.1270922,0.1244749 0.1308703,0.1312215 0.1264805,0.127569 0.1464044,0.1218193 0.010181,-0.00295 0.019352,-0.011756 0.3502071,-0.3368342 0.1115213,-0.1095759 0.2021851,-0.1969651 0.2056734,-0.1982472 0.00886,-0.00326 0.020732,-0.00287 0.028976,0.00101 0.010682,0.00495 0.1134267,0.107508 0.1175724,0.1173054 0.00456,0.010795 0.00433,0.018162 -9.28e-4,0.028867 -0.003,0.00612 -0.110993,0.1135386 -0.3470963,0.3452749 -0.188503,0.1850168 -0.3442589,0.3372714 -0.3461245,0.3383442 -0.00415,0.0024 -0.016252,0.0052 -0.019274,0.00442 z"
         id="path3511" /><path
         d="m 9.4744346,2.69129 c 0.013042,0.01304 0.013042,0.03442 0,0.04746 L 9.2129346,3 c -0.013042,0.013 -0.013042,0.03442 0,0.0475 l 0.261375,0.261333 c 0.013042,0.01304 0.013042,0.03442 0,0.0475 l -0.095208,0.09488 c -0.013083,0.013 -0.0345,0.013 -0.047583,0 L 9.0702262,3.189915 c -0.013042,-0.01304 -0.0345,-0.01304 -0.047542,0 l -0.2615,0.261125 c -0.013042,0.01304 -0.0345,0.01304 -0.047542,0 l -0.095083,-0.095 c -0.013042,-0.01304 -0.013042,-0.03442 0,-0.0475 L 8.8801425,3.047332 c 0.013042,-0.013 0.013042,-0.03442 0,-0.0475 L 8.6187679,2.738457 c -0.013083,-0.01304 -0.013083,-0.03446 0,-0.0475 l 0.095167,-0.09492 c 0.013125,-0.013 0.0345,-0.013 0.047583,4.2e-5 l 0.26125,0.26125 c 0.013083,0.01308 0.0345,0.01308 0.047542,4.2e-5 l 0.2615,-0.261125 c 0.013,-0.013 0.034417,-0.013 0.047542,0 z"
         id="path3655"
         style="fill:#000000;stroke:#ffffff;stroke-width:0.00111111;stroke-dasharray:none" /><path
         d="m 9.4744346,5.0777735 c 0.013042,0.01304 0.013042,0.03442 0,0.04746 l -0.2615,0.26125 c -0.013042,0.013 -0.013042,0.03442 0,0.0475 l 0.261375,0.261333 c 0.013042,0.01304 0.013042,0.03442 0,0.0475 l -0.095208,0.09488 c -0.013083,0.013 -0.0345,0.013 -0.047583,0 L 9.0702262,5.5763985 c -0.013042,-0.01304 -0.0345,-0.01304 -0.047542,0 l -0.2615,0.261125 c -0.013042,0.01304 -0.0345,0.01304 -0.047542,0 l -0.095083,-0.095 c -0.013042,-0.01304 -0.013042,-0.03442 0,-0.0475 l 0.2615833,-0.261208 c 0.013042,-0.013 0.013042,-0.03442 0,-0.0475 L 8.6187679,5.1249405 c -0.013083,-0.01304 -0.013083,-0.03446 0,-0.0475 l 0.095167,-0.09492 c 0.013125,-0.013 0.0345,-0.013 0.047583,4.2e-5 l 0.26125,0.26125 c 0.013083,0.01308 0.0345,0.01308 0.047542,4.2e-5 l 0.2615,-0.261125 c 0.013,-0.013 0.034417,-0.013 0.047542,0 z"
         id="path3657"
         style="fill:#000000;stroke:#ffffff;stroke-width:0.00111111;stroke-dasharray:none" /><path
         d="m 9.4744346,6.2895743 c 0.013042,0.01304 0.013042,0.03442 0,0.04746 l -0.2615,0.26125 c -0.013042,0.013 -0.013042,0.03442 0,0.0475 l 0.261375,0.261333 c 0.013042,0.01304 0.013042,0.03442 0,0.0475 l -0.095208,0.09488 c -0.013083,0.013 -0.0345,0.013 -0.047583,0 L 9.0702262,6.7881993 c -0.013042,-0.01304 -0.0345,-0.01304 -0.047542,0 l -0.2615,0.261125 c -0.013042,0.01304 -0.0345,0.01304 -0.047542,0 l -0.095083,-0.095 c -0.013042,-0.01304 -0.013042,-0.03442 0,-0.0475 l 0.2615833,-0.261208 c 0.013042,-0.013 0.013042,-0.03442 0,-0.0475 L 8.6187679,6.3367413 c -0.013083,-0.01304 -0.013083,-0.03446 0,-0.0475 l 0.095167,-0.09492 c 0.013125,-0.013 0.0345,-0.013 0.047583,4.2e-5 l 0.26125,0.26125 c 0.013083,0.01308 0.0345,0.01308 0.047542,4.2e-5 l 0.2615,-0.261125 c 0.013,-0.013 0.034417,-0.013 0.047542,0 z"
         id="path3659"
         style="fill:#000000;stroke:#ffffff;stroke-width:0.00111111;stroke-dasharray:none" /><path
         d="m 9.4744346,7.501375 c 0.013042,0.01304 0.013042,0.03442 0,0.04746 l -0.2615,0.26125 c -0.013042,0.013 -0.013042,0.03442 0,0.0475 l 0.261375,0.261333 c 0.013042,0.01304 0.013042,0.03442 0,0.0475 l -0.095208,0.09488 c -0.013083,0.013 -0.0345,0.013 -0.047583,0 L 9.0702262,8 c -0.013042,-0.01304 -0.0345,-0.01304 -0.047542,0 l -0.2615,0.261125 c -0.013042,0.01304 -0.0345,0.01304 -0.047542,0 l -0.095083,-0.095 c -0.013042,-0.01304 -0.013042,-0.03442 0,-0.0475 L 8.8801425,7.857417 c 0.013042,-0.013 0.013042,-0.03442 0,-0.0475 L 8.6187679,7.548542 c -0.013083,-0.01304 -0.013083,-0.03446 0,-0.0475 l 0.095167,-0.09492 c 0.013125,-0.013 0.0345,-0.013 0.047583,4.2e-5 l 0.26125,0.26125 c 0.013083,0.01308 0.0345,0.01308 0.047542,4.2e-5 l 0.2615,-0.261125 c 0.013,-0.013 0.034417,-0.013 0.047542,0 z"
         id="path3661"
         style="fill:#000000;stroke:#ffffff;stroke-width:0.00111111;stroke-dasharray:none" /><path
         style="fill:#000000;stroke:#ffffff;stroke-width:0.00111111;stroke-dasharray:none"
         d="m 12.275573,5.818609 c -0.0012,-2.984e-4 -0.0052,-0.00116 -0.0089,-0.00193 -0.0048,-0.00101 -0.02368,-0.018112 -0.0684,-0.0619 -0.08887,-0.087036 -0.333654,-0.340279 -0.337359,-0.3490197 -0.0044,-0.01034 -0.0038,-0.018503 0.0019,-0.028767 0.0054,-0.00961 0.108236,-0.1022079 0.118749,-0.1068987 0.0095,-0.00426 0.02275,-0.00334 0.03147,0.0021 0.0043,0.00272 0.0615,0.05871 0.127092,0.1244749 0.13087,0.1312215 0.12648,0.127569 0.146404,0.1218193 0.01018,-0.00295 0.01935,-0.011756 0.350207,-0.3368342 0.111522,-0.1095759 0.202186,-0.1969651 0.205674,-0.1982472 0.0089,-0.00326 0.02073,-0.00287 0.02898,0.00101 0.01068,0.00495 0.113427,0.107508 0.117572,0.1173054 0.0046,0.010795 0.0043,0.018162 -9.28e-4,0.028867 -0.003,0.00612 -0.110956,0.1135386 -0.347059,0.3452749 -0.188503,0.1850168 -0.344259,0.3372714 -0.346125,0.3383442 -0.0042,0.0024 -0.01625,0.0052 -0.01927,0.00442 z"
         id="path3513" /><path
         d="m 12.853043,2.633919 c 0.01304,0.01304 0.01304,0.03442 0,0.04746 l -0.2615,0.26125 c -0.01304,0.013 -0.01304,0.03442 0,0.0475 l 0.261375,0.261333 c 0.01304,0.01304 0.01304,0.03442 0,0.0475 l -0.09521,0.09488 c -0.01308,0.013 -0.0345,0.013 -0.04758,0 L 12.448834,3.132544 c -0.01304,-0.01304 -0.0345,-0.01304 -0.04754,0 l -0.2615,0.261125 c -0.01304,0.01304 -0.0345,0.01304 -0.04754,0 l -0.09508,-0.095 c -0.01304,-0.01304 -0.01304,-0.03442 0,-0.0475 l 0.261584,-0.261208 c 0.01304,-0.013 0.01304,-0.03442 0,-0.0475 L 11.997376,2.681086 c -0.01308,-0.01304 -0.01308,-0.03446 0,-0.0475 l 0.09517,-0.09492 c 0.01312,-0.013 0.0345,-0.013 0.04758,4.2e-5 l 0.26125,0.26125 c 0.01308,0.01308 0.0345,0.01308 0.04754,4.2e-5 l 0.2615,-0.261125 c 0.013,-0.013 0.03442,-0.013 0.04754,0 z"
         id="path3663"
         style="fill:#000000;stroke:#ffffff;stroke-width:0.00111111;stroke-dasharray:none" /><path
         d="m 12.853043,3.8600625 c 0.01304,0.01304 0.01304,0.03442 0,0.04746 l -0.2615,0.26125 c -0.01304,0.013 -0.01304,0.03442 0,0.0475 l 0.261375,0.261333 c 0.01304,0.01304 0.01304,0.03442 0,0.0475 l -0.09521,0.09488 c -0.01308,0.013 -0.0345,0.013 -0.04758,0 l -0.261294,-0.261298 c -0.01304,-0.01304 -0.0345,-0.01304 -0.04754,0 l -0.2615,0.261125 c -0.01304,0.01304 -0.0345,0.01304 -0.04754,0 l -0.09508,-0.095 c -0.01304,-0.01304 -0.01304,-0.03442 0,-0.0475 l 0.261584,-0.261208 c 0.01304,-0.013 0.01304,-0.03442 0,-0.0475 l -0.261382,-0.261375 c -0.01308,-0.01304 -0.01308,-0.03446 0,-0.0475 l 0.09517,-0.09492 c 0.01312,-0.013 0.0345,-0.013 0.04758,4.2e-5 l 0.26125,0.26125 c 0.01308,0.01308 0.0345,0.01308 0.04754,4.2e-5 l 0.2615,-0.261125 c 0.013,-0.013 0.03442,-0.013 0.04754,0 z"
         id="path3665"
         style="fill:#000000;stroke:#ffffff;stroke-width:0.00111111;stroke-dasharray:none" /><path
         d="m 12.853043,6.2752315 c 0.01304,0.01304 0.01304,0.03442 0,0.04746 l -0.2615,0.26125 c -0.01304,0.013 -0.01304,0.03442 0,0.0475 l 0.261375,0.261333 c 0.01304,0.01304 0.01304,0.03442 0,0.0475 l -0.09521,0.09488 c -0.01308,0.013 -0.0345,0.013 -0.04758,0 l -0.261294,-0.261298 c -0.01304,-0.01304 -0.0345,-0.01304 -0.04754,0 l -0.2615,0.261125 c -0.01304,0.01304 -0.0345,0.01304 -0.04754,0 l -0.09508,-0.095 c -0.01304,-0.01304 -0.01304,-0.03442 0,-0.0475 l 0.261584,-0.261208 c 0.01304,-0.013 0.01304,-0.03442 0,-0.0475 l -0.261382,-0.261375 c -0.01308,-0.01304 -0.01308,-0.03446 0,-0.0475 l 0.09517,-0.09492 c 0.01312,-0.013 0.0345,-0.013 0.04758,4.2e-5 l 0.26125,0.26125 c 0.01308,0.01308 0.0345,0.01308 0.04754,4.2e-5 l 0.2615,-0.261125 c 0.013,-0.013 0.03442,-0.013 0.04754,0 z"
         id="path3667"
         style="fill:#000000;stroke:#ffffff;stroke-width:0.00111111;stroke-dasharray:none" /><path
         d="m 12.853043,7.501375 c 0.01304,0.01304 0.01304,0.03442 0,0.04746 l -0.2615,0.26125 c -0.01304,0.013 -0.01304,0.03442 0,0.0475 l 0.261375,0.261333 c 0.01304,0.01304 0.01304,0.03442 0,0.0475 l -0.09521,0.09488 c -0.01308,0.013 -0.0345,0.013 -0.04758,0 L 12.448834,8 c -0.01304,-0.01304 -0.0345,-0.01304 -0.04754,0 l -0.2615,0.261125 c -0.01304,0.01304 -0.0345,0.01304 -0.04754,0 l -0.09508,-0.095 c -0.01304,-0.01304 -0.01304,-0.03442 0,-0.0475 l 0.261584,-0.261208 c 0.01304,-0.013 0.01304,-0.03442 0,-0.0475 L 11.997376,7.548542 c -0.01308,-0.01304 -0.01308,-0.03446 0,-0.0475 l 0.09517,-0.09492 c 0.01312,-0.013 0.0345,-0.013 0.04758,4.2e-5 l 0.26125,0.26125 c 0.01308,0.01308 0.0345,0.01308 0.04754,4.2e-5 l 0.2615,-0.261125 c 0.013,-0.013 0.03442,-0.013 0.04754,0 z"
         id="path3669"
         style="fill:#000000;stroke:#ffffff;stroke-width:0.00111111;stroke-dasharray:none" /><path
         style="fill:#000000;stroke:#ffffff;stroke-width:0.00111111;stroke-dasharray:none"
         d="m 15.698184,7.0015637 c -0.0012,-2.984e-4 -0.0052,-0.00116 -0.0089,-0.00193 -0.0048,-0.00101 -0.02368,-0.018112 -0.0684,-0.0619 -0.08887,-0.087036 -0.333654,-0.340279 -0.337359,-0.3490197 -0.0044,-0.01034 -0.0038,-0.018503 0.0019,-0.028767 0.0054,-0.00961 0.108236,-0.1022079 0.118749,-0.1068987 0.0095,-0.00426 0.02275,-0.00334 0.03147,0.0021 0.0043,0.00272 0.0615,0.05871 0.127092,0.1244749 0.13087,0.1312215 0.12648,0.127569 0.146404,0.1218193 0.01018,-0.00295 0.01935,-0.011756 0.350207,-0.3368342 0.111522,-0.1095759 0.202186,-0.1969651 0.205674,-0.1982472 0.0089,-0.00326 0.02073,-0.00287 0.02898,0.00101 0.01068,0.00495 0.113427,0.107508 0.117572,0.1173054 0.0046,0.010795 0.0043,0.018162 -9.28e-4,0.028867 -0.003,0.00612 -0.110956,0.1135386 -0.347059,0.3452749 -0.188503,0.1850168 -0.344259,0.3372714 -0.346125,0.3383442 -0.0042,0.0024 -0.01625,0.0052 -0.01927,0.00442 z"
         id="path3515" /><path
         d="m 16.275653,7.44379 c 0.01304,0.01304 0.01304,0.03442 0,0.04746 l -0.2615,0.26125 c -0.01304,0.013 -0.01304,0.03442 0,0.0475 l 0.261375,0.261333 c 0.01304,0.01304 0.01304,0.03442 0,0.0475 l -0.09521,0.09488 c -0.01308,0.013 -0.0345,0.013 -0.04758,0 L 15.871444,7.942415 c -0.01304,-0.01304 -0.0345,-0.01304 -0.04754,0 l -0.2615,0.261125 c -0.01304,0.01304 -0.0345,0.01304 -0.04754,0 l -0.09508,-0.095 c -0.01304,-0.01304 -0.01304,-0.03442 0,-0.0475 l 0.261584,-0.261208 c 0.01304,-0.013 0.01304,-0.03442 0,-0.0475 L 15.419986,7.490957 c -0.01308,-0.01304 -0.01308,-0.03446 0,-0.0475 l 0.09517,-0.09492 c 0.01312,-0.013 0.0345,-0.013 0.04758,4.2e-5 l 0.26125,0.26125 c 0.01308,0.01308 0.0345,0.01308 0.04754,4.2e-5 l 0.2615,-0.261125 c 0.013,-0.013 0.03442,-0.013 0.04754,0 z"
         id="path3671"
         style="fill:#000000;stroke:#ffffff;stroke-width:0.00111111;stroke-dasharray:none" /><path
         d="m 16.275653,5.0574135 c 0.01304,0.01304 0.01304,0.03442 0,0.04746 l -0.2615,0.26125 c -0.01304,0.013 -0.01304,0.03442 0,0.0475 l 0.261375,0.261333 c 0.01304,0.01304 0.01304,0.03442 0,0.0475 l -0.09521,0.09488 c -0.01308,0.013 -0.0345,0.013 -0.04758,0 l -0.261294,-0.261298 c -0.01304,-0.01304 -0.0345,-0.01304 -0.04754,0 l -0.2615,0.261125 c -0.01304,0.01304 -0.0345,0.01304 -0.04754,0 l -0.09508,-0.095 c -0.01304,-0.01304 -0.01304,-0.03442 0,-0.0475 l 0.261584,-0.261208 c 0.01304,-0.013 0.01304,-0.03442 0,-0.0475 l -0.261382,-0.261375 c -0.01308,-0.01304 -0.01308,-0.03446 0,-0.0475 l 0.09517,-0.09492 c 0.01312,-0.013 0.0345,-0.013 0.04758,4.2e-5 l 0.26125,0.26125 c 0.01308,0.01308 0.0345,0.01308 0.04754,4.2e-5 l 0.2615,-0.261125 c 0.013,-0.013 0.03442,-0.013 0.04754,0 z"
         id="path3673"
         style="fill:#000000;stroke:#ffffff;stroke-width:0.00111111;stroke-dasharray:none" /><path
         d="m 16.275653,3.8456662 c 0.01304,0.01304 0.01304,0.03442 0,0.04746 l -0.2615,0.26125 c -0.01304,0.013 -0.01304,0.03442 0,0.0475 l 0.261375,0.261333 c 0.01304,0.01304 0.01304,0.03442 0,0.0475 l -0.09521,0.09488 c -0.01308,0.013 -0.0345,0.013 -0.04758,0 l -0.261294,-0.261298 c -0.01304,-0.01304 -0.0345,-0.01304 -0.04754,0 l -0.2615,0.261125 c -0.01304,0.01304 -0.0345,0.01304 -0.04754,0 l -0.09508,-0.095 c -0.01304,-0.01304 -0.01304,-0.03442 0,-0.0475 l 0.261584,-0.261208 c 0.01304,-0.013 0.01304,-0.03442 0,-0.0475 l -0.261382,-0.261375 c -0.01308,-0.01304 -0.01308,-0.03446 0,-0.0475 l 0.09517,-0.09492 c 0.01312,-0.013 0.0345,-0.013 0.04758,4.2e-5 l 0.26125,0.26125 c 0.01308,0.01308 0.0345,0.01308 0.04754,4.2e-5 l 0.2615,-0.261125 c 0.013,-0.013 0.03442,-0.013 0.04754,0 z"
         id="path3675"
         style="fill:#000000;stroke:#ffffff;stroke-width:0.00111111;stroke-dasharray:none" /><path
         d="m 16.275653,2.633919 c 0.01304,0.01304 0.01304,0.03442 0,0.04746 l -0.2615,0.26125 c -0.01304,0.013 -0.01304,0.03442 0,0.0475 l 0.261375,0.261333 c 0.01304,0.01304 0.01304,0.03442 0,0.0475 l -0.09521,0.09488 c -0.01308,0.013 -0.0345,0.013 -0.04758,0 L 15.871444,3.132544 c -0.01304,-0.01304 -0.0345,-0.01304 -0.04754,0 l -0.2615,0.261125 c -0.01304,0.01304 -0.0345,0.01304 -0.04754,0 l -0.09508,-0.095 c -0.01304,-0.01304 -0.01304,-0.03442 0,-0.0475 l 0.261584,-0.261208 c 0.01304,-0.013 0.01304,-0.03442 0,-0.0475 L 15.419986,2.681086 c -0.01308,-0.01304 -0.01308,-0.03446 0,-0.0475 l 0.09517,-0.09492 c 0.01312,-0.013 0.0345,-0.013 0.04758,4.2e-5 l 0.26125,0.26125 c 0.01308,0.01308 0.0345,0.01308 0.04754,4.2e-5 l 0.2615,-0.261125 c 0.013,-0.013 0.03442,-0.013 0.04754,0 z"
         id="path3677"
         style="fill:#000000;stroke:#ffffff;stroke-width:0.00111111;stroke-dasharray:none" /><path
         style="fill:#000000;stroke:#ffffff;stroke-width:0.00111111;stroke-dasharray:none"
         d="m 19.273796,8.2292926 c -0.0012,-2.984e-4 -0.0052,-0.00116 -0.0089,-0.00193 -0.0048,-0.00101 -0.02368,-0.018112 -0.0684,-0.0619 -0.08887,-0.087036 -0.333654,-0.340279 -0.337359,-0.3490197 -0.0044,-0.01034 -0.0038,-0.018503 0.0019,-0.028767 0.0054,-0.00961 0.108236,-0.1022079 0.118749,-0.1068987 0.0095,-0.00426 0.02275,-0.00334 0.03147,0.0021 0.0043,0.00272 0.0615,0.05871 0.127092,0.1244749 0.13087,0.1312215 0.12648,0.127569 0.146404,0.1218193 0.01018,-0.00295 0.01935,-0.011756 0.350207,-0.3368342 0.111522,-0.1095759 0.202186,-0.1969651 0.205674,-0.1982472 0.0089,-0.00326 0.02073,-0.00287 0.02898,0.00101 0.01068,0.00495 0.113427,0.107508 0.117572,0.1173054 0.0046,0.010795 0.0043,0.018162 -9.28e-4,0.028867 -0.003,0.00612 -0.110956,0.1135386 -0.347059,0.3452749 -0.188503,0.1850168 -0.344259,0.3372714 -0.346125,0.3383442 -0.0042,0.0024 -0.01625,0.0052 -0.01927,0.00442 z"
         id="path3517" /><path
         d="m 19.851265,2.6503619 c 0.01304,0.01304 0.01304,0.03442 0,0.04746 l -0.2615,0.26125 c -0.01304,0.013 -0.01304,0.03442 0,0.0475 l 0.261375,0.261333 c 0.01304,0.01304 0.01304,0.03442 0,0.0475 l -0.09521,0.09488 c -0.01308,0.013 -0.0345,0.013 -0.04758,0 l -0.261294,-0.261298 c -0.01304,-0.01304 -0.0345,-0.01304 -0.04754,0 l -0.2615,0.261125 c -0.01304,0.01304 -0.0345,0.01304 -0.04754,0 l -0.09508,-0.095 c -0.01304,-0.01304 -0.01304,-0.03442 0,-0.0475 l 0.261584,-0.261208 c 0.01304,-0.013 0.01304,-0.03442 0,-0.0475 l -0.261382,-0.261375 c -0.01308,-0.01304 -0.01308,-0.03446 0,-0.0475 l 0.09517,-0.09492 c 0.01312,-0.013 0.0345,-0.013 0.04758,4.2e-5 l 0.26125,0.26125 c 0.01308,0.01308 0.0345,0.01308 0.04754,4.2e-5 l 0.2615,-0.261125 c 0.013,-0.013 0.03442,-0.013 0.04754,0 z"
         id="path3679"
         style="fill:#000000;stroke:#ffffff;stroke-width:0.00111111;stroke-dasharray:none" /><path
         d="m 19.851265,3.8619938 c 0.01304,0.01304 0.01304,0.03442 0,0.04746 l -0.2615,0.26125 c -0.01304,0.013 -0.01304,0.03442 0,0.0475 l 0.261375,0.261333 c 0.01304,0.01304 0.01304,0.03442 0,0.0475 l -0.09521,0.09488 c -0.01308,0.013 -0.0345,0.013 -0.04758,0 l -0.261294,-0.261298 c -0.01304,-0.01304 -0.0345,-0.01304 -0.04754,0 l -0.2615,0.261125 c -0.01304,0.01304 -0.0345,0.01304 -0.04754,0 l -0.09508,-0.095 c -0.01304,-0.01304 -0.01304,-0.03442 0,-0.0475 l 0.261584,-0.261208 c 0.01304,-0.013 0.01304,-0.03442 0,-0.0475 l -0.261382,-0.261375 c -0.01308,-0.01304 -0.01308,-0.03446 0,-0.0475 l 0.09517,-0.09492 c 0.01312,-0.013 0.0345,-0.013 0.04758,4.2e-5 l 0.26125,0.26125 c 0.01308,0.01308 0.0345,0.01308 0.04754,4.2e-5 l 0.2615,-0.261125 c 0.013,-0.013 0.03442,-0.013 0.04754,0 z"
         id="path3681"
         style="fill:#000000;stroke:#ffffff;stroke-width:0.00111111;stroke-dasharray:none" /><path
         d="m 19.851265,5.0736257 c 0.01304,0.01304 0.01304,0.03442 0,0.04746 l -0.2615,0.26125 c -0.01304,0.013 -0.01304,0.03442 0,0.0475 l 0.261375,0.261333 c 0.01304,0.01304 0.01304,0.03442 0,0.0475 l -0.09521,0.09488 c -0.01308,0.013 -0.0345,0.013 -0.04758,0 l -0.261294,-0.261298 c -0.01304,-0.01304 -0.0345,-0.01304 -0.04754,0 l -0.2615,0.261125 c -0.01304,0.01304 -0.0345,0.01304 -0.04754,0 l -0.09508,-0.095 c -0.01304,-0.01304 -0.01304,-0.03442 0,-0.0475 l 0.261584,-0.261208 c 0.01304,-0.013 0.01304,-0.03442 0,-0.0475 l -0.261382,-0.261375 c -0.01308,-0.01304 -0.01308,-0.03446 0,-0.0475 l 0.09517,-0.09492 c 0.01312,-0.013 0.0345,-0.013 0.04758,4.2e-5 l 0.26125,0.26125 c 0.01308,0.01308 0.0345,0.01308 0.04754,4.2e-5 l 0.2615,-0.261125 c 0.013,-0.013 0.03442,-0.013 0.04754,0 z"
         id="path3683"
         style="fill:#000000;stroke:#ffffff;stroke-width:0.00111111;stroke-dasharray:none" /><path
         d="m 19.851265,6.2852576 c 0.01304,0.01304 0.01304,0.03442 0,0.04746 l -0.2615,0.26125 c -0.01304,0.013 -0.01304,0.03442 0,0.0475 l 0.261375,0.261333 c 0.01304,0.01304 0.01304,0.03442 0,0.0475 l -0.09521,0.09488 c -0.01308,0.013 -0.0345,0.013 -0.04758,0 l -0.261294,-0.261298 c -0.01304,-0.01304 -0.0345,-0.01304 -0.04754,0 l -0.2615,0.261125 c -0.01304,0.01304 -0.0345,0.01304 -0.04754,0 l -0.09508,-0.095 c -0.01304,-0.01304 -0.01304,-0.03442 0,-0.0475 l 0.261584,-0.261208 c 0.01304,-0.013 0.01304,-0.03442 0,-0.0475 l -0.261382,-0.261375 c -0.01308,-0.01304 -0.01308,-0.03446 0,-0.0475 l 0.09517,-0.09492 c 0.01312,-0.013 0.0345,-0.013 0.04758,4.2e-5 l 0.26125,0.26125 c 0.01308,0.01308 0.0345,0.01308 0.04754,4.2e-5 l 0.2615,-0.261125 c 0.013,-0.013 0.03442,-0.013 0.04754,0 z"
         id="path3685"
         style="fill:#000000;stroke:#ffffff;stroke-width:0.00111111;stroke-dasharray:none" /></g><path
       style="opacity:1;fill:#000000;fill-opacity:1;fill-rule:evenodd;stroke:#ff7800;stroke-width:0.107778;stroke-linecap:round;stroke-linejoin:bevel;stroke-dasharray:none;marker-end:url(#Arrow3);paint-order:markers stroke fill"
       d="m 20.799999,5.4 h 1.6"
       id="path3746" /><text
       xml:space="preserve"
       style="font-style:normal;font-variant:normal;font-weight:normal;font-stretch:normal;font-size:1.22222px;line-height:1.11111px;font-family:'Atkinson Hyperlegible';-inkscape-font-specification:'Atkinson Hyperlegible, Normal';font-variant-ligatures:normal;font-variant-caps:normal;font-variant-numeric:normal;font-variant-east-asian:normal;word-spacing:0px;opacity:1;fill:#000000;fill-opacity:1;fill-rule:evenodd;stroke:none;stroke-width:0.08;stroke-linecap:round;stroke-linejoin:bevel;paint-order:markers stroke fill"
       x="22.587778"
       y="5.738555"
       id="text3758"><tspan
         sodipodi:role="line"
         style="stroke-width:0.08"
         x="22.587778"
         y="5.738555"
         id="tspan3756"
         rotate="0 0 0 0 0 0 0 0 0 0 0 0 0 0 0 0 0 0 0 0">What is P(E1 = E2)?</tspan></text><rect
       style="opacity:0.25;mix-blend-mode:multiply;fill:#9a9996;fill-rule:evenodd;stroke:none;stroke-width:0.0799997;stroke-linecap:round;stroke-linejoin:bevel;paint-order:markers stroke fill"
       id="rect4046"
       width="20.940002"
       height="1.12"
       x="-2.1059299e-09"
       y="6.04" /></g></svg>
